<svg xmlns="http://www.w3.org/2000/svg" xmlns:xlink="http://www.w3.org/1999/xlink" width="500" zoomAndPan="magnify" viewBox="0 0 375 374.999991" height="500" preserveAspectRatio="xMidYMid meet" version="1.0"><defs><g/><clipPath id="3c51761022"><path d="M 131 83 L 178.445312 83 L 178.445312 127 L 131 127 Z M 131 83 " clip-rule="nonzero"/></clipPath><clipPath id="3c2bae7b2a"><path d="M 90.832031 161.589844 L 211.582031 161.589844 L 211.582031 197.589844 L 90.832031 197.589844 Z M 90.832031 161.589844 " clip-rule="nonzero"/></clipPath><clipPath id="6572260330"><path d="M 97 164 L 131.019531 164 L 131.019531 195.480469 L 97 195.480469 Z M 97 164 " clip-rule="nonzero"/></clipPath></defs><g clip-path="url(#3c51761022)"><path fill="#ffffff" d="M 137.660156 83.597656 C 137.125 83.597656 136.613281 83.828125 136.261719 84.230469 L 136.253906 84.242188 C 136.046875 84.480469 135.910156 84.757812 135.84375 85.042969 C 135.480469 85.125 135.148438 85.316406 134.894531 85.597656 C 134.640625 85.871094 134.484375 86.203125 134.425781 86.550781 C 134.054688 86.613281 133.710938 86.785156 133.4375 87.050781 C 133.171875 87.304688 133 87.621094 132.921875 87.953125 C 132.628906 88.019531 132.355469 88.164062 132.128906 88.363281 C 131.378906 89.019531 131.289062 90.175781 131.925781 90.945312 L 140.796875 101.640625 L 140.816406 101.664062 C 142.003906 103.039062 143.628906 103.832031 145.394531 103.894531 C 145.472656 103.898438 145.546875 103.902344 145.625 103.902344 C 146.546875 103.902344 147.445312 103.695312 148.277344 103.304688 C 149.273438 104.332031 150.355469 105.46875 151.617188 106.8125 C 151.832031 107.046875 152.050781 107.28125 152.269531 107.515625 C 151.726562 108.015625 151.1875 108.5 150.667969 108.972656 C 148.621094 110.816406 146.566406 112.625 144.554688 114.355469 C 142.148438 116.429688 140.15625 118.078125 138.292969 119.550781 L 138.28125 119.554688 C 138.035156 119.753906 137.804688 119.984375 137.617188 120.222656 C 136.226562 121.988281 136.53125 124.550781 138.292969 125.9375 C 139.007812 126.503906 139.902344 126.8125 140.808594 126.8125 C 142.066406 126.8125 143.230469 126.246094 144.007812 125.261719 C 145.480469 123.394531 147.082031 121.464844 149.199219 119 C 150.9375 116.980469 152.75 114.925781 154.585938 112.890625 C 155.007812 112.421875 155.4375 111.945312 155.886719 111.453125 C 156.320312 111.929688 156.730469 112.382812 157.121094 112.8125 C 158.964844 114.859375 160.777344 116.914062 162.507812 118.925781 C 164.625 121.386719 166.226562 123.320312 167.699219 125.1875 C 167.898438 125.441406 168.132812 125.671875 168.375 125.863281 C 169.089844 126.425781 169.984375 126.738281 170.894531 126.738281 C 172.148438 126.738281 173.3125 126.171875 174.089844 125.1875 C 175.476562 123.425781 175.175781 120.863281 173.414062 119.472656 C 171.550781 118.003906 169.558594 116.355469 167.148438 114.28125 C 165.136719 112.546875 163.082031 110.738281 161.039062 108.894531 C 160.550781 108.453125 160.042969 107.996094 159.511719 107.511719 C 159.703125 107.304688 159.898438 107.09375 160.089844 106.890625 C 161.453125 105.4375 162.613281 104.21875 163.675781 103.125 C 164.417969 103.359375 165.257812 103.480469 166.164062 103.480469 C 169.363281 103.480469 172.695312 102.054688 175.082031 99.667969 C 177.035156 97.714844 178.347656 95.164062 178.773438 92.488281 C 179.191406 89.863281 178.660156 87.515625 177.351562 86.207031 C 176.363281 85.21875 174.753906 84.675781 172.820312 84.675781 C 169.605469 84.675781 166.265625 86.09375 163.890625 88.472656 C 162.167969 90.195312 160.941406 92.511719 160.433594 95 C 160.078125 96.742188 160.105469 98.464844 160.484375 99.828125 C 159.375 100.90625 158.167969 102.054688 156.664062 103.460938 C 156.410156 103.703125 156.152344 103.945312 155.894531 104.183594 C 155.609375 103.921875 155.324219 103.65625 155.042969 103.390625 C 153.648438 102.085938 152.515625 101.007812 151.480469 100.003906 C 151.851562 99.152344 152.023438 98.238281 151.988281 97.300781 C 151.914062 95.535156 151.109375 93.910156 149.71875 92.726562 L 149.683594 92.695312 L 138.820312 84.003906 C 138.492188 83.742188 138.078125 83.597656 137.660156 83.597656 Z M 137.660156 85.089844 C 137.738281 85.089844 137.820312 85.117188 137.886719 85.171875 L 148.753906 93.863281 C 149.828125 94.777344 150.441406 96.015625 150.496094 97.359375 C 150.539062 98.40625 150.230469 99.414062 149.621094 100.277344 C 151.070312 101.695312 152.539062 103.089844 154.019531 104.476562 C 154.640625 105.0625 155.269531 105.636719 155.894531 106.214844 C 156.492188 105.660156 157.09375 105.109375 157.6875 104.550781 C 159.210938 103.121094 160.726562 101.683594 162.21875 100.21875 C 161.089844 97.992188 161.582031 92.894531 164.945312 89.527344 C 167.277344 87.195312 170.367188 86.167969 172.820312 86.167969 C 174.324219 86.167969 175.585938 86.554688 176.296875 87.261719 C 178.234375 89.203125 177.789062 94.851562 174.027344 98.609375 C 171.695312 100.945312 168.617188 101.988281 166.164062 101.988281 C 165.039062 101.988281 164.050781 101.769531 163.316406 101.355469 C 161.859375 102.839844 160.429688 104.351562 159.003906 105.867188 C 158.464844 106.441406 157.933594 107.023438 157.398438 107.601562 C 158.277344 108.402344 159.15625 109.207031 160.039062 110.003906 C 162.0625 111.828125 164.109375 113.632812 166.175781 115.414062 C 168.246094 117.191406 170.339844 118.949219 172.488281 120.644531 C 173.609375 121.527344 173.796875 123.148438 172.917969 124.265625 C 172.410156 124.910156 171.65625 125.246094 170.894531 125.246094 C 170.335938 125.246094 169.769531 125.066406 169.296875 124.691406 C 169.140625 124.566406 168.992188 124.414062 168.871094 124.265625 C 167.175781 122.113281 165.417969 120.023438 163.636719 117.949219 C 161.855469 115.882812 160.054688 113.835938 158.230469 111.8125 C 157.453125 110.953125 156.671875 110.09375 155.886719 109.234375 C 155.082031 110.117188 154.277344 111 153.476562 111.890625 C 151.652344 113.910156 149.847656 115.957031 148.070312 118.023438 C 146.289062 120.09375 144.53125 122.1875 142.835938 124.339844 C 142.328125 124.984375 141.570312 125.320312 140.808594 125.320312 C 140.25 125.320312 139.6875 125.140625 139.214844 124.765625 C 138.097656 123.886719 137.910156 122.265625 138.789062 121.148438 C 138.914062 120.988281 139.0625 120.839844 139.214844 120.722656 C 141.367188 119.023438 143.460938 117.265625 145.527344 115.488281 C 147.597656 113.707031 149.640625 111.902344 151.667969 110.078125 C 152.574219 109.257812 153.480469 108.433594 154.382812 107.609375 C 153.824219 107.003906 153.269531 106.394531 152.703125 105.792969 C 151.320312 104.320312 149.933594 102.859375 148.519531 101.417969 C 147.675781 102.058594 146.671875 102.410156 145.625 102.410156 C 145.566406 102.410156 145.507812 102.40625 145.449219 102.40625 C 144.101562 102.355469 142.859375 101.746094 141.945312 100.6875 L 133.074219 89.992188 C 132.949219 89.839844 132.960938 89.613281 133.113281 89.484375 C 133.183594 89.421875 133.269531 89.394531 133.355469 89.394531 C 133.453125 89.394531 133.550781 89.429688 133.621094 89.503906 L 142.75 98.941406 C 142.828125 99.023438 142.914062 99.070312 143 99.070312 L 143.007812 99.070312 C 143.054688 99.070312 143.117188 99.058594 143.171875 99.003906 C 143.285156 98.886719 143.273438 98.667969 143.140625 98.527344 L 134.457031 88.625 C 134.328125 88.480469 134.332031 88.261719 134.476562 88.121094 C 134.546875 88.054688 134.636719 88.019531 134.730469 88.019531 C 134.820312 88.019531 134.910156 88.050781 134.976562 88.113281 L 144.667969 96.996094 C 144.75 97.082031 144.84375 97.125 144.9375 97.125 C 144.988281 97.125 145.0625 97.113281 145.125 97.050781 C 145.183594 96.988281 145.195312 96.914062 145.195312 96.867188 C 145.195312 96.773438 145.152344 96.679688 145.082031 96.613281 L 135.996094 87.109375 C 135.859375 86.96875 135.859375 86.746094 135.992188 86.605469 C 136.0625 86.527344 136.160156 86.488281 136.257812 86.488281 C 136.34375 86.488281 136.425781 86.515625 136.496094 86.574219 L 146.582031 95.054688 C 146.667969 95.136719 146.777344 95.175781 146.871094 95.175781 C 146.953125 95.175781 147.023438 95.148438 147.078125 95.097656 C 147.136719 95.039062 147.144531 94.972656 147.144531 94.925781 C 147.140625 94.84375 147.097656 94.757812 147.023438 94.695312 L 137.410156 85.722656 C 137.265625 85.589844 137.253906 85.367188 137.382812 85.214844 C 137.457031 85.132812 137.558594 85.089844 137.660156 85.089844 " fill-opacity="1" fill-rule="nonzero"/></g><g clip-path="url(#3c2bae7b2a)"><path fill="#111b1e" d="M 90.847656 161.589844 L 211.566406 161.589844 L 211.566406 197.589844 L 90.847656 197.589844 L 90.847656 161.589844 " fill-opacity="1" fill-rule="nonzero"/></g><g clip-path="url(#6572260330)"><path fill="#ffffff" d="M 101.980469 164.496094 C 101.601562 164.496094 101.238281 164.660156 100.984375 164.945312 L 100.976562 164.953125 C 100.832031 165.125 100.734375 165.320312 100.6875 165.527344 C 100.429688 165.585938 100.191406 165.722656 100.007812 165.921875 C 99.828125 166.117188 99.71875 166.355469 99.675781 166.601562 C 99.410156 166.644531 99.167969 166.765625 98.96875 166.957031 C 98.78125 167.136719 98.660156 167.363281 98.601562 167.597656 C 98.394531 167.648438 98.203125 167.75 98.039062 167.890625 C 97.503906 168.359375 97.4375 169.183594 97.894531 169.734375 L 104.21875 177.355469 L 104.230469 177.371094 C 105.078125 178.355469 106.238281 178.917969 107.496094 178.964844 C 107.550781 178.964844 107.601562 178.96875 107.65625 178.96875 C 108.316406 178.96875 108.957031 178.820312 109.546875 178.542969 C 110.257812 179.277344 111.03125 180.085938 111.929688 181.042969 C 112.082031 181.207031 112.238281 181.375 112.394531 181.542969 C 112.007812 181.898438 111.625 182.246094 111.253906 182.582031 C 109.792969 183.894531 108.328125 185.1875 106.894531 186.417969 C 105.179688 187.898438 103.761719 189.070312 102.429688 190.121094 L 102.425781 190.125 C 102.25 190.265625 102.082031 190.429688 101.949219 190.601562 C 100.960938 191.859375 101.175781 193.683594 102.429688 194.675781 C 102.941406 195.078125 103.578125 195.296875 104.226562 195.296875 C 105.121094 195.296875 105.953125 194.894531 106.503906 194.191406 C 107.554688 192.863281 108.695312 191.484375 110.207031 189.726562 C 111.445312 188.289062 112.738281 186.824219 114.046875 185.375 C 114.347656 185.039062 114.652344 184.699219 114.972656 184.347656 C 115.28125 184.6875 115.574219 185.011719 115.851562 185.320312 C 117.167969 186.777344 118.457031 188.242188 119.691406 189.675781 C 121.199219 191.429688 122.34375 192.808594 123.394531 194.140625 C 123.535156 194.320312 123.703125 194.484375 123.875 194.621094 C 124.382812 195.023438 125.019531 195.246094 125.667969 195.246094 C 126.5625 195.246094 127.394531 194.84375 127.945312 194.140625 C 128.9375 192.886719 128.722656 191.058594 127.464844 190.066406 C 126.136719 189.019531 124.71875 187.84375 123 186.367188 C 121.566406 185.132812 120.101562 183.839844 118.644531 182.527344 C 118.296875 182.210938 117.9375 181.886719 117.554688 181.539062 C 117.695312 181.390625 117.832031 181.246094 117.96875 181.097656 C 118.941406 180.0625 119.765625 179.195312 120.527344 178.414062 C 121.054688 178.582031 121.652344 178.667969 122.296875 178.667969 C 124.578125 178.667969 126.953125 177.652344 128.65625 175.949219 C 130.046875 174.558594 130.980469 172.742188 131.285156 170.832031 C 131.582031 168.960938 131.203125 167.289062 130.269531 166.355469 C 129.570312 165.652344 128.421875 165.265625 127.042969 165.265625 C 124.75 165.265625 122.371094 166.277344 120.675781 167.96875 C 119.449219 169.195312 118.574219 170.851562 118.214844 172.625 C 117.960938 173.863281 117.980469 175.09375 118.25 176.066406 C 117.460938 176.832031 116.597656 177.652344 115.527344 178.65625 C 115.347656 178.828125 115.160156 179 114.976562 179.167969 C 114.773438 178.980469 114.570312 178.792969 114.371094 178.601562 C 113.378906 177.671875 112.570312 176.90625 111.832031 176.191406 C 112.097656 175.582031 112.21875 174.929688 112.191406 174.261719 C 112.140625 173.003906 111.566406 171.847656 110.578125 171 L 110.550781 170.980469 L 102.808594 164.785156 C 102.574219 164.597656 102.28125 164.496094 101.980469 164.496094 Z M 101.980469 165.558594 C 102.039062 165.558594 102.09375 165.578125 102.144531 165.617188 L 109.886719 171.8125 C 110.652344 172.464844 111.089844 173.347656 111.128906 174.304688 C 111.160156 175.050781 110.941406 175.769531 110.507812 176.382812 C 111.539062 177.394531 112.585938 178.390625 113.640625 179.378906 C 114.082031 179.792969 114.53125 180.203125 114.976562 180.617188 C 115.402344 180.222656 115.832031 179.828125 116.257812 179.429688 C 117.34375 178.414062 118.421875 177.386719 119.484375 176.34375 C 118.683594 174.753906 119.03125 171.121094 121.429688 168.722656 C 123.089844 167.058594 125.292969 166.328125 127.042969 166.328125 C 128.113281 166.328125 129.015625 166.601562 129.519531 167.105469 C 130.902344 168.492188 130.585938 172.515625 127.902344 175.195312 C 126.238281 176.859375 124.046875 177.605469 122.296875 177.605469 C 121.496094 177.605469 120.789062 177.449219 120.269531 177.152344 C 119.230469 178.210938 118.210938 179.289062 117.195312 180.371094 C 116.808594 180.777344 116.429688 181.191406 116.050781 181.605469 C 116.675781 182.175781 117.300781 182.75 117.933594 183.316406 C 119.375 184.617188 120.832031 185.902344 122.308594 187.171875 C 123.78125 188.441406 125.273438 189.691406 126.808594 190.902344 C 127.605469 191.53125 127.738281 192.683594 127.113281 193.480469 C 126.75 193.941406 126.210938 194.179688 125.667969 194.179688 C 125.269531 194.179688 124.867188 194.050781 124.53125 193.785156 C 124.417969 193.699219 124.3125 193.589844 124.226562 193.480469 C 123.019531 191.949219 121.765625 190.457031 120.496094 188.980469 C 119.226562 187.507812 117.945312 186.050781 116.640625 184.609375 C 116.089844 183.992188 115.53125 183.382812 114.972656 182.769531 C 114.398438 183.398438 113.824219 184.027344 113.253906 184.660156 C 111.953125 186.101562 110.667969 187.5625 109.398438 189.035156 C 108.132812 190.507812 106.878906 192 105.667969 193.535156 C 105.308594 193.996094 104.769531 194.234375 104.226562 194.234375 C 103.828125 194.234375 103.425781 194.105469 103.089844 193.839844 C 102.292969 193.210938 102.160156 192.054688 102.785156 191.261719 C 102.875 191.148438 102.980469 191.042969 103.089844 190.957031 C 104.625 189.746094 106.117188 188.492188 107.589844 187.226562 C 109.066406 185.957031 110.523438 184.671875 111.964844 183.371094 C 112.613281 182.785156 113.257812 182.199219 113.902344 181.609375 C 113.503906 181.179688 113.105469 180.746094 112.703125 180.316406 C 111.71875 179.265625 110.730469 178.222656 109.722656 177.195312 C 109.117188 177.652344 108.402344 177.902344 107.65625 177.902344 C 107.617188 177.902344 107.574219 177.902344 107.535156 177.902344 C 106.574219 177.867188 105.6875 177.433594 105.035156 176.679688 L 98.714844 169.054688 C 98.625 168.945312 98.632812 168.785156 98.742188 168.691406 C 98.789062 168.648438 98.851562 168.625 98.914062 168.625 C 98.984375 168.625 99.050781 168.652344 99.101562 168.707031 L 105.609375 175.433594 C 105.664062 175.492188 105.726562 175.523438 105.785156 175.523438 L 105.792969 175.523438 C 105.824219 175.523438 105.871094 175.515625 105.910156 175.476562 C 105.992188 175.394531 105.984375 175.238281 105.886719 175.136719 L 99.699219 168.082031 C 99.605469 167.976562 99.609375 167.820312 99.710938 167.722656 C 99.761719 167.671875 99.828125 167.648438 99.894531 167.648438 C 99.957031 167.648438 100.019531 167.671875 100.070312 167.714844 L 106.976562 174.046875 C 107.035156 174.109375 107.101562 174.136719 107.167969 174.136719 C 107.203125 174.136719 107.257812 174.128906 107.300781 174.082031 C 107.34375 174.042969 107.351562 173.988281 107.351562 173.953125 C 107.351562 173.886719 107.324219 173.820312 107.273438 173.773438 L 100.792969 167 C 100.699219 166.898438 100.699219 166.738281 100.792969 166.640625 C 100.84375 166.585938 100.910156 166.554688 100.980469 166.554688 C 101.042969 166.554688 101.101562 166.578125 101.152344 166.617188 L 108.339844 172.664062 C 108.402344 172.71875 108.476562 172.75 108.546875 172.75 C 108.605469 172.75 108.65625 172.730469 108.695312 172.691406 C 108.734375 172.652344 108.742188 172.605469 108.742188 172.570312 C 108.738281 172.511719 108.707031 172.449219 108.65625 172.40625 L 101.800781 166.011719 C 101.699219 165.917969 101.691406 165.757812 101.78125 165.648438 C 101.835938 165.589844 101.90625 165.558594 101.980469 165.558594 " fill-opacity="1" fill-rule="nonzero"/></g><g fill="#a47f47" fill-opacity="1"><g transform="translate(136.206998, 183.081478)"><g><path d="M 4.3125 0 L 2.1875 0 L 2.1875 -6.125 L 0.28125 -6.125 L 0.28125 -7.859375 L 6.21875 -7.859375 L 6.21875 -6.125 L 4.3125 -6.125 Z M 4.3125 0 "/></g></g></g><g fill="#a47f47" fill-opacity="1"><g transform="translate(142.701405, 183.081478)"><g><path d="M 4.6875 0 L 4.296875 -0.8125 L 4.25 -0.8125 C 3.96875 -0.457031 3.675781 -0.210938 3.375 -0.078125 C 3.082031 0.046875 2.707031 0.109375 2.25 0.109375 C 1.675781 0.109375 1.222656 -0.0625 0.890625 -0.40625 C 0.554688 -0.75 0.390625 -1.234375 0.390625 -1.859375 C 0.390625 -2.503906 0.613281 -2.984375 1.0625 -3.296875 C 1.519531 -3.617188 2.175781 -3.800781 3.03125 -3.84375 L 4.046875 -3.875 L 4.046875 -3.953125 C 4.046875 -4.453125 3.800781 -4.703125 3.3125 -4.703125 C 2.863281 -4.703125 2.296875 -4.554688 1.609375 -4.265625 L 1.015625 -5.640625 C 1.722656 -6.003906 2.617188 -6.1875 3.703125 -6.1875 C 4.472656 -6.1875 5.070312 -5.992188 5.5 -5.609375 C 5.9375 -5.222656 6.15625 -4.679688 6.15625 -3.984375 L 6.15625 0 Z M 3.140625 -1.375 C 3.390625 -1.375 3.601562 -1.453125 3.78125 -1.609375 C 3.96875 -1.773438 4.0625 -1.988281 4.0625 -2.25 L 4.0625 -2.71875 L 3.578125 -2.703125 C 2.890625 -2.671875 2.546875 -2.414062 2.546875 -1.9375 C 2.546875 -1.5625 2.742188 -1.375 3.140625 -1.375 Z M 3.140625 -1.375 "/></g></g></g><g fill="#a47f47" fill-opacity="1"><g transform="translate(149.550053, 183.081478)"><g><path d="M 5.421875 -1.875 C 5.421875 -1.21875 5.195312 -0.722656 4.75 -0.390625 C 4.3125 -0.0546875 3.675781 0.109375 2.84375 0.109375 C 2.394531 0.109375 2.003906 0.0820312 1.671875 0.03125 C 1.335938 -0.0078125 1 -0.0976562 0.65625 -0.234375 L 0.65625 -1.90625 C 0.976562 -1.769531 1.332031 -1.65625 1.71875 -1.5625 C 2.101562 -1.46875 2.453125 -1.421875 2.765625 -1.421875 C 3.210938 -1.421875 3.4375 -1.523438 3.4375 -1.734375 C 3.4375 -1.835938 3.375 -1.929688 3.25 -2.015625 C 3.125 -2.097656 2.753906 -2.265625 2.140625 -2.515625 C 1.585938 -2.742188 1.195312 -3.003906 0.96875 -3.296875 C 0.75 -3.585938 0.640625 -3.957031 0.640625 -4.40625 C 0.640625 -4.96875 0.859375 -5.40625 1.296875 -5.71875 C 1.734375 -6.03125 2.347656 -6.1875 3.140625 -6.1875 C 3.546875 -6.1875 3.925781 -6.144531 4.28125 -6.0625 C 4.632812 -5.976562 5 -5.847656 5.375 -5.671875 L 4.8125 -4.328125 C 4.53125 -4.453125 4.234375 -4.554688 3.921875 -4.640625 C 3.609375 -4.734375 3.351562 -4.78125 3.15625 -4.78125 C 2.8125 -4.78125 2.640625 -4.691406 2.640625 -4.515625 C 2.640625 -4.410156 2.695312 -4.320312 2.8125 -4.25 C 2.9375 -4.175781 3.285156 -4.03125 3.859375 -3.8125 C 4.285156 -3.632812 4.601562 -3.460938 4.8125 -3.296875 C 5.019531 -3.128906 5.171875 -2.929688 5.265625 -2.703125 C 5.367188 -2.472656 5.421875 -2.195312 5.421875 -1.875 Z M 5.421875 -1.875 "/></g></g></g><g fill="#a47f47" fill-opacity="1"><g transform="translate(155.411121, 183.081478)"><g><path d="M 3.703125 -1.546875 C 3.984375 -1.546875 4.320312 -1.617188 4.71875 -1.765625 L 4.71875 -0.234375 C 4.4375 -0.109375 4.164062 -0.0195312 3.90625 0.03125 C 3.65625 0.0820312 3.359375 0.109375 3.015625 0.109375 C 2.304688 0.109375 1.796875 -0.0625 1.484375 -0.40625 C 1.171875 -0.75 1.015625 -1.28125 1.015625 -2 L 1.015625 -4.515625 L 0.28125 -4.515625 L 0.28125 -5.359375 L 1.21875 -6.03125 L 1.765625 -7.3125 L 3.140625 -7.3125 L 3.140625 -6.078125 L 4.625 -6.078125 L 4.625 -4.515625 L 3.140625 -4.515625 L 3.140625 -2.140625 C 3.140625 -1.742188 3.328125 -1.546875 3.703125 -1.546875 Z M 3.703125 -1.546875 "/></g></g></g><g fill="#a47f47" fill-opacity="1"><g transform="translate(160.467098, 183.081478)"><g><path d="M -0.015625 -6.078125 L 2.203125 -6.078125 L 3.234375 -2.59375 C 3.285156 -2.414062 3.316406 -2.195312 3.328125 -1.9375 L 3.375 -1.9375 C 3.40625 -2.175781 3.445312 -2.390625 3.5 -2.578125 L 4.5625 -6.078125 L 6.703125 -6.078125 L 4.296875 0.390625 C 3.992188 1.210938 3.617188 1.789062 3.171875 2.125 C 2.722656 2.46875 2.132812 2.640625 1.40625 2.640625 C 1.125 2.640625 0.835938 2.609375 0.546875 2.546875 L 0.546875 0.90625 C 0.734375 0.945312 0.953125 0.96875 1.203125 0.96875 C 1.390625 0.96875 1.550781 0.929688 1.6875 0.859375 C 1.820312 0.785156 1.941406 0.679688 2.046875 0.546875 C 2.148438 0.421875 2.265625 0.207031 2.390625 -0.09375 Z M -0.015625 -6.078125 "/></g></g></g><g fill="#a47f47" fill-opacity="1"><g transform="translate(167.170829, 183.081478)"><g/></g></g><g fill="#a47f47" fill-opacity="1"><g transform="translate(170.026221, 183.081478)"><g><path d="M 4.34375 -6.21875 C 3.84375 -6.21875 3.445312 -6.007812 3.15625 -5.59375 C 2.875 -5.1875 2.734375 -4.617188 2.734375 -3.890625 C 2.734375 -2.378906 3.3125 -1.625 4.46875 -1.625 C 4.8125 -1.625 5.144531 -1.671875 5.46875 -1.765625 C 5.800781 -1.867188 6.128906 -1.988281 6.453125 -2.125 L 6.453125 -0.328125 C 5.796875 -0.0351562 5.054688 0.109375 4.234375 0.109375 C 3.046875 0.109375 2.132812 -0.234375 1.5 -0.921875 C 0.875 -1.609375 0.5625 -2.601562 0.5625 -3.90625 C 0.5625 -4.71875 0.710938 -5.429688 1.015625 -6.046875 C 1.328125 -6.660156 1.769531 -7.132812 2.34375 -7.46875 C 2.914062 -7.800781 3.585938 -7.96875 4.359375 -7.96875 C 5.210938 -7.96875 6.023438 -7.78125 6.796875 -7.40625 L 6.15625 -5.734375 C 5.863281 -5.878906 5.570312 -5.992188 5.28125 -6.078125 C 4.988281 -6.171875 4.675781 -6.21875 4.34375 -6.21875 Z M 4.34375 -6.21875 "/></g></g></g><g fill="#a47f47" fill-opacity="1"><g transform="translate(177.159334, 183.081478)"><g><path d="M 6.53125 -3.0625 C 6.53125 -2.0625 6.265625 -1.28125 5.734375 -0.71875 C 5.203125 -0.164062 4.453125 0.109375 3.484375 0.109375 C 2.554688 0.109375 1.820312 -0.171875 1.28125 -0.734375 C 0.738281 -1.304688 0.46875 -2.082031 0.46875 -3.0625 C 0.46875 -4.050781 0.734375 -4.816406 1.265625 -5.359375 C 1.796875 -5.910156 2.546875 -6.1875 3.515625 -6.1875 C 4.117188 -6.1875 4.648438 -6.0625 5.109375 -5.8125 C 5.566406 -5.5625 5.914062 -5.195312 6.15625 -4.71875 C 6.40625 -4.238281 6.53125 -3.6875 6.53125 -3.0625 Z M 2.59375 -3.0625 C 2.59375 -2.53125 2.660156 -2.128906 2.796875 -1.859375 C 2.941406 -1.585938 3.175781 -1.453125 3.5 -1.453125 C 3.832031 -1.453125 4.066406 -1.585938 4.203125 -1.859375 C 4.335938 -2.128906 4.40625 -2.53125 4.40625 -3.0625 C 4.40625 -3.570312 4.332031 -3.957031 4.1875 -4.21875 C 4.050781 -4.488281 3.820312 -4.625 3.5 -4.625 C 3.175781 -4.625 2.941406 -4.492188 2.796875 -4.234375 C 2.660156 -3.972656 2.59375 -3.582031 2.59375 -3.0625 Z M 2.59375 -3.0625 "/></g></g></g><g fill="#a47f47" fill-opacity="1"><g transform="translate(184.163633, 183.081478)"><g><path d="M 4.40625 -6.1875 C 4.582031 -6.1875 4.753906 -6.175781 4.921875 -6.15625 L 5.03125 -6.125 L 4.84375 -4.140625 C 4.675781 -4.191406 4.441406 -4.21875 4.140625 -4.21875 C 3.679688 -4.21875 3.347656 -4.109375 3.140625 -3.890625 C 2.929688 -3.679688 2.828125 -3.378906 2.828125 -2.984375 L 2.828125 0 L 0.71875 0 L 0.71875 -6.078125 L 2.28125 -6.078125 L 2.609375 -5.109375 L 2.71875 -5.109375 C 2.894531 -5.429688 3.140625 -5.691406 3.453125 -5.890625 C 3.765625 -6.085938 4.082031 -6.1875 4.40625 -6.1875 Z M 4.40625 -6.1875 "/></g></g></g><g fill="#a47f47" fill-opacity="1"><g transform="translate(189.321588, 183.081478)"><g><path d="M 4.5625 0 L 4.5625 -3.3125 C 4.5625 -3.71875 4.503906 -4.023438 4.390625 -4.234375 C 4.273438 -4.441406 4.085938 -4.546875 3.828125 -4.546875 C 3.472656 -4.546875 3.21875 -4.40625 3.0625 -4.125 C 2.90625 -3.84375 2.828125 -3.359375 2.828125 -2.671875 L 2.828125 0 L 0.71875 0 L 0.71875 -6.078125 L 2.3125 -6.078125 L 2.578125 -5.328125 L 2.703125 -5.328125 C 2.878906 -5.617188 3.125 -5.832031 3.4375 -5.96875 C 3.757812 -6.113281 4.125 -6.1875 4.53125 -6.1875 C 5.207031 -6.1875 5.734375 -5.988281 6.109375 -5.59375 C 6.484375 -5.207031 6.671875 -4.660156 6.671875 -3.953125 L 6.671875 0 Z M 4.5625 0 "/></g></g></g><g fill="#a47f47" fill-opacity="1"><g transform="translate(196.685494, 183.081478)"><g><path d="M 3.65625 0.109375 C 2.644531 0.109375 1.859375 -0.160156 1.296875 -0.703125 C 0.742188 -1.242188 0.46875 -2.007812 0.46875 -3 C 0.46875 -4.03125 0.722656 -4.816406 1.234375 -5.359375 C 1.753906 -5.910156 2.5 -6.1875 3.46875 -6.1875 C 4.382812 -6.1875 5.09375 -5.945312 5.59375 -5.46875 C 6.09375 -5 6.34375 -4.3125 6.34375 -3.40625 L 6.34375 -2.46875 L 2.578125 -2.46875 C 2.597656 -2.132812 2.722656 -1.867188 2.953125 -1.671875 C 3.191406 -1.484375 3.515625 -1.390625 3.921875 -1.390625 C 4.285156 -1.390625 4.617188 -1.421875 4.921875 -1.484375 C 5.234375 -1.554688 5.570312 -1.675781 5.9375 -1.84375 L 5.9375 -0.34375 C 5.613281 -0.175781 5.273438 -0.0625 4.921875 0 C 4.566406 0.0703125 4.144531 0.109375 3.65625 0.109375 Z M 3.546875 -4.765625 C 3.296875 -4.765625 3.085938 -4.6875 2.921875 -4.53125 C 2.753906 -4.375 2.65625 -4.128906 2.625 -3.796875 L 4.4375 -3.796875 C 4.425781 -4.085938 4.335938 -4.320312 4.171875 -4.5 C 4.015625 -4.675781 3.804688 -4.765625 3.546875 -4.765625 Z M 3.546875 -4.765625 "/></g></g></g><g fill="#a47f47" fill-opacity="1"><g transform="translate(203.480469, 183.081478)"><g><path d="M 4.40625 -6.1875 C 4.582031 -6.1875 4.753906 -6.175781 4.921875 -6.15625 L 5.03125 -6.125 L 4.84375 -4.140625 C 4.675781 -4.191406 4.441406 -4.21875 4.140625 -4.21875 C 3.679688 -4.21875 3.347656 -4.109375 3.140625 -3.890625 C 2.929688 -3.679688 2.828125 -3.378906 2.828125 -2.984375 L 2.828125 0 L 0.71875 0 L 0.71875 -6.078125 L 2.28125 -6.078125 L 2.609375 -5.109375 L 2.71875 -5.109375 C 2.894531 -5.429688 3.140625 -5.691406 3.453125 -5.890625 C 3.765625 -6.085938 4.082031 -6.1875 4.40625 -6.1875 Z M 4.40625 -6.1875 "/></g></g></g><g fill="#a47f47" fill-opacity="1"><g transform="translate(208.628868, 183.081478)"><g/></g></g></svg>