<svg xmlns="http://www.w3.org/2000/svg" xmlns:xlink="http://www.w3.org/1999/xlink" width="500" zoomAndPan="magnify" viewBox="0 0 375 374.999991" height="500" preserveAspectRatio="xMidYMid meet" version="1.0"><defs><g/><clipPath id="c0c8677b43"><path d="M 39.921875 123.472656 L 335.421875 123.472656 L 335.421875 280.972656 L 39.921875 280.972656 Z M 39.921875 123.472656 " clip-rule="nonzero"/></clipPath><clipPath id="9db54a05b0"><path d="M 45.046875 128.710938 L 330.046875 128.710938 L 330.046875 275.710938 L 45.046875 275.710938 Z M 45.046875 128.710938 " clip-rule="nonzero"/></clipPath><clipPath id="bab130fca0"><path d="M 160 153 L 207.617188 153 L 207.617188 197 L 160 197 Z M 160 153 " clip-rule="nonzero"/></clipPath></defs><g clip-path="url(#c0c8677b43)"><path fill="#a47f47" d="M 319.519531 150.476562 L 203.566406 124.921875 C 194.835938 122.992188 180.507812 122.992188 171.777344 124.921875 L 55.820312 150.476562 C 47.089844 152.40625 39.925781 161.328125 39.925781 170.308594 L 39.925781 233.113281 C 39.925781 242.273438 47.089844 251.378906 55.820312 253.367188 L 171.777344 279.527344 C 180.507812 281.515625 194.835938 281.515625 203.566406 279.527344 L 319.519531 253.367188 C 328.25 251.378906 335.414062 242.273438 335.414062 233.113281 L 335.414062 170.308594 C 335.414062 161.328125 328.25 152.40625 319.519531 150.476562 " fill-opacity="1" fill-rule="nonzero"/></g><g clip-path="url(#9db54a05b0)"><path fill="#111b1e" d="M 314.714844 154.777344 L 202.878906 130.109375 C 194.457031 128.246094 180.636719 128.246094 172.21875 130.109375 L 60.382812 154.777344 C 51.964844 156.640625 45.054688 165.25 45.054688 173.921875 L 45.054688 229.515625 C 45.054688 238.359375 51.964844 247.144531 60.382812 249.0625 L 172.21875 274.316406 C 180.636719 276.234375 194.457031 276.234375 202.878906 274.316406 L 314.714844 249.0625 C 323.132812 247.144531 330.042969 238.359375 330.042969 229.515625 L 330.042969 173.921875 C 330.042969 165.25 323.132812 156.640625 314.714844 154.777344 " fill-opacity="1" fill-rule="nonzero"/></g><g fill="#a47f47" fill-opacity="1"><g transform="translate(91.702044, 220.460112)"><g><path d="M 9.359375 0 L 7.578125 -6.25 L 5.796875 0 L 2.96875 0 L -0.203125 -11.15625 L 2.625 -11.15625 L 4.53125 -3.5 L 4.59375 -3.5 L 6.625 -11.15625 L 8.546875 -11.15625 L 10.5625 -3.5 L 10.640625 -3.5 L 12.546875 -11.15625 L 15.359375 -11.15625 L 12.171875 0 Z M 9.359375 0 "/></g></g></g><g fill="#a47f47" fill-opacity="1"><g transform="translate(106.848676, 220.460112)"><g><path d="M 7.1875 -11.15625 L 7.1875 -8.921875 L 3.359375 -8.921875 L 3.359375 -6.703125 L 7.03125 -6.703125 L 7.03125 -4.46875 L 3.359375 -4.46875 L 3.359375 -2.234375 L 7.1875 -2.234375 L 7.1875 0 L 0.8125 0 L 0.8125 -11.15625 Z M 7.1875 -11.15625 "/></g></g></g><g fill="#a47f47" fill-opacity="1"><g transform="translate(114.685475, 220.460112)"><g><path d="M 0.8125 -11.15625 L 4.265625 -11.15625 C 5.316406 -11.15625 6.148438 -10.929688 6.765625 -10.484375 C 7.390625 -10.035156 7.703125 -9.3125 7.703125 -8.3125 C 7.703125 -7.195312 7.238281 -6.398438 6.3125 -5.921875 C 7.894531 -5.640625 8.6875 -4.703125 8.6875 -3.109375 C 8.6875 -2.171875 8.363281 -1.414062 7.71875 -0.84375 C 7.070312 -0.28125 6.179688 0 5.046875 0 L 0.8125 0 Z M 3.359375 -6.78125 L 3.546875 -6.78125 C 4.117188 -6.78125 4.546875 -6.878906 4.828125 -7.078125 C 5.109375 -7.273438 5.25 -7.601562 5.25 -8.0625 C 5.25 -8.8125 4.679688 -9.1875 3.546875 -9.1875 L 3.359375 -9.1875 Z M 3.359375 -1.953125 L 4.15625 -1.953125 C 5.394531 -1.953125 6.015625 -2.367188 6.015625 -3.203125 C 6.015625 -3.703125 5.859375 -4.054688 5.546875 -4.265625 C 5.234375 -4.484375 4.769531 -4.59375 4.15625 -4.59375 L 3.359375 -4.59375 Z M 3.359375 -1.953125 "/></g></g></g><g fill="#a47f47" fill-opacity="1"><g transform="translate(123.684273, 220.460112)"><g/></g></g><g fill="#a47f47" fill-opacity="1"><g transform="translate(127.372967, 220.460112)"><g><path d="M 4.921875 -11.359375 C 5.523438 -11.359375 6.113281 -11.269531 6.6875 -11.09375 C 7.269531 -10.914062 7.695312 -10.738281 7.96875 -10.5625 L 8.375 -10.296875 L 7.359375 -8.265625 C 7.273438 -8.328125 7.160156 -8.398438 7.015625 -8.484375 C 6.867188 -8.566406 6.597656 -8.679688 6.203125 -8.828125 C 5.804688 -8.972656 5.4375 -9.046875 5.09375 -9.046875 C 4.664062 -9.046875 4.335938 -8.953125 4.109375 -8.765625 C 3.878906 -8.585938 3.765625 -8.347656 3.765625 -8.046875 C 3.765625 -7.890625 3.816406 -7.742188 3.921875 -7.609375 C 4.035156 -7.484375 4.222656 -7.34375 4.484375 -7.1875 C 4.742188 -7.039062 4.972656 -6.921875 5.171875 -6.828125 C 5.367188 -6.742188 5.675781 -6.613281 6.09375 -6.4375 C 6.8125 -6.125 7.425781 -5.703125 7.9375 -5.171875 C 8.445312 -4.648438 8.703125 -4.054688 8.703125 -3.390625 C 8.703125 -2.753906 8.585938 -2.195312 8.359375 -1.71875 C 8.128906 -1.238281 7.8125 -0.863281 7.40625 -0.59375 C 7.007812 -0.320312 6.566406 -0.125 6.078125 0 C 5.597656 0.132812 5.070312 0.203125 4.5 0.203125 C 4.007812 0.203125 3.53125 0.148438 3.0625 0.046875 C 2.59375 -0.046875 2.203125 -0.164062 1.890625 -0.3125 C 1.578125 -0.46875 1.289062 -0.613281 1.03125 -0.75 C 0.78125 -0.894531 0.597656 -1.019531 0.484375 -1.125 L 0.3125 -1.265625 L 1.578125 -3.40625 C 1.691406 -3.3125 1.84375 -3.195312 2.03125 -3.0625 C 2.21875 -2.925781 2.550781 -2.738281 3.03125 -2.5 C 3.507812 -2.269531 3.9375 -2.15625 4.3125 -2.15625 C 5.382812 -2.15625 5.921875 -2.519531 5.921875 -3.25 C 5.921875 -3.394531 5.878906 -3.53125 5.796875 -3.65625 C 5.722656 -3.789062 5.585938 -3.921875 5.390625 -4.046875 C 5.203125 -4.179688 5.03125 -4.285156 4.875 -4.359375 C 4.726562 -4.441406 4.488281 -4.5625 4.15625 -4.71875 C 3.820312 -4.875 3.570312 -4.992188 3.40625 -5.078125 C 2.726562 -5.410156 2.203125 -5.828125 1.828125 -6.328125 C 1.460938 -6.828125 1.28125 -7.367188 1.28125 -7.953125 C 1.28125 -8.953125 1.648438 -9.769531 2.390625 -10.40625 C 3.128906 -11.039062 3.972656 -11.359375 4.921875 -11.359375 Z M 4.921875 -11.359375 "/></g></g></g><g fill="#a47f47" fill-opacity="1"><g transform="translate(136.452846, 220.460112)"><g><path d="M -0.40625 -11.15625 L 2.65625 -11.15625 L 4.96875 -7.578125 L 7.296875 -11.15625 L 10.359375 -11.15625 L 6.25 -5 L 6.25 0 L 3.703125 0 L 3.703125 -5 Z M -0.40625 -11.15625 "/></g></g></g><g fill="#a47f47" fill-opacity="1"><g transform="translate(146.397475, 220.460112)"><g><path d="M 4.921875 -11.359375 C 5.523438 -11.359375 6.113281 -11.269531 6.6875 -11.09375 C 7.269531 -10.914062 7.695312 -10.738281 7.96875 -10.5625 L 8.375 -10.296875 L 7.359375 -8.265625 C 7.273438 -8.328125 7.160156 -8.398438 7.015625 -8.484375 C 6.867188 -8.566406 6.597656 -8.679688 6.203125 -8.828125 C 5.804688 -8.972656 5.4375 -9.046875 5.09375 -9.046875 C 4.664062 -9.046875 4.335938 -8.953125 4.109375 -8.765625 C 3.878906 -8.585938 3.765625 -8.347656 3.765625 -8.046875 C 3.765625 -7.890625 3.816406 -7.742188 3.921875 -7.609375 C 4.035156 -7.484375 4.222656 -7.34375 4.484375 -7.1875 C 4.742188 -7.039062 4.972656 -6.921875 5.171875 -6.828125 C 5.367188 -6.742188 5.675781 -6.613281 6.09375 -6.4375 C 6.8125 -6.125 7.425781 -5.703125 7.9375 -5.171875 C 8.445312 -4.648438 8.703125 -4.054688 8.703125 -3.390625 C 8.703125 -2.753906 8.585938 -2.195312 8.359375 -1.71875 C 8.128906 -1.238281 7.8125 -0.863281 7.40625 -0.59375 C 7.007812 -0.320312 6.566406 -0.125 6.078125 0 C 5.597656 0.132812 5.070312 0.203125 4.5 0.203125 C 4.007812 0.203125 3.53125 0.148438 3.0625 0.046875 C 2.59375 -0.046875 2.203125 -0.164062 1.890625 -0.3125 C 1.578125 -0.46875 1.289062 -0.613281 1.03125 -0.75 C 0.78125 -0.894531 0.597656 -1.019531 0.484375 -1.125 L 0.3125 -1.265625 L 1.578125 -3.40625 C 1.691406 -3.3125 1.84375 -3.195312 2.03125 -3.0625 C 2.21875 -2.925781 2.550781 -2.738281 3.03125 -2.5 C 3.507812 -2.269531 3.9375 -2.15625 4.3125 -2.15625 C 5.382812 -2.15625 5.921875 -2.519531 5.921875 -3.25 C 5.921875 -3.394531 5.878906 -3.53125 5.796875 -3.65625 C 5.722656 -3.789062 5.585938 -3.921875 5.390625 -4.046875 C 5.203125 -4.179688 5.03125 -4.285156 4.875 -4.359375 C 4.726562 -4.441406 4.488281 -4.5625 4.15625 -4.71875 C 3.820312 -4.875 3.570312 -4.992188 3.40625 -5.078125 C 2.726562 -5.410156 2.203125 -5.828125 1.828125 -6.328125 C 1.460938 -6.828125 1.28125 -7.367188 1.28125 -7.953125 C 1.28125 -8.953125 1.648438 -9.769531 2.390625 -10.40625 C 3.128906 -11.039062 3.972656 -11.359375 4.921875 -11.359375 Z M 4.921875 -11.359375 "/></g></g></g><g fill="#a47f47" fill-opacity="1"><g transform="translate(155.477354, 220.460112)"><g><path d="M 0.109375 -8.921875 L 0.109375 -11.15625 L 7.953125 -11.15625 L 7.953125 -8.921875 L 5.296875 -8.921875 L 5.296875 0 L 2.75 0 L 2.75 -8.921875 Z M 0.109375 -8.921875 "/></g></g></g><g fill="#a47f47" fill-opacity="1"><g transform="translate(163.530332, 220.460112)"><g><path d="M 7.1875 -11.15625 L 7.1875 -8.921875 L 3.359375 -8.921875 L 3.359375 -6.703125 L 7.03125 -6.703125 L 7.03125 -4.46875 L 3.359375 -4.46875 L 3.359375 -2.234375 L 7.1875 -2.234375 L 7.1875 0 L 0.8125 0 L 0.8125 -11.15625 Z M 7.1875 -11.15625 "/></g></g></g><g fill="#a47f47" fill-opacity="1"><g transform="translate(171.367131, 220.460112)"><g><path d="M 10.03125 0 L 9.5 -6.609375 L 9.4375 -6.609375 L 7.15625 -0.0625 L 5.640625 -0.0625 L 3.359375 -6.609375 L 3.28125 -6.609375 L 2.75 0 L 0.21875 0 L 1.21875 -11.15625 L 3.921875 -11.15625 L 6.390625 -4.71875 L 8.859375 -11.15625 L 11.5625 -11.15625 L 12.5625 0 Z M 10.03125 0 "/></g></g></g><g fill="#a47f47" fill-opacity="1"><g transform="translate(184.14922, 220.460112)"><g/></g></g><g fill="#a47f47" fill-opacity="1"><g transform="translate(187.837914, 220.460112)"><g><path d="M 0.8125 -11.15625 L 4.796875 -11.15625 C 5.867188 -11.15625 6.742188 -10.867188 7.421875 -10.296875 C 8.097656 -9.722656 8.4375 -8.90625 8.4375 -7.84375 C 8.4375 -7.019531 8.226562 -6.332031 7.8125 -5.78125 C 7.40625 -5.226562 6.851562 -4.835938 6.15625 -4.609375 L 9.984375 0 L 6.765625 0 L 3.359375 -4.40625 L 3.359375 0 L 0.8125 0 Z M 3.359375 -6.203125 L 3.65625 -6.203125 C 3.882812 -6.203125 4.078125 -6.207031 4.234375 -6.21875 C 4.398438 -6.226562 4.585938 -6.257812 4.796875 -6.3125 C 5.003906 -6.363281 5.171875 -6.4375 5.296875 -6.53125 C 5.421875 -6.632812 5.523438 -6.78125 5.609375 -6.96875 C 5.703125 -7.164062 5.75 -7.394531 5.75 -7.65625 C 5.75 -7.925781 5.703125 -8.15625 5.609375 -8.34375 C 5.523438 -8.539062 5.421875 -8.6875 5.296875 -8.78125 C 5.171875 -8.882812 5.003906 -8.960938 4.796875 -9.015625 C 4.585938 -9.066406 4.398438 -9.097656 4.234375 -9.109375 C 4.078125 -9.117188 3.882812 -9.125 3.65625 -9.125 L 3.359375 -9.125 Z M 3.359375 -6.203125 "/></g></g></g><g fill="#a47f47" fill-opacity="1"><g transform="translate(197.512302, 220.460112)"><g><path d="M 7.1875 -11.15625 L 7.1875 -8.921875 L 3.359375 -8.921875 L 3.359375 -6.703125 L 7.03125 -6.703125 L 7.03125 -4.46875 L 3.359375 -4.46875 L 3.359375 -2.234375 L 7.1875 -2.234375 L 7.1875 0 L 0.8125 0 L 0.8125 -11.15625 Z M 7.1875 -11.15625 "/></g></g></g><g fill="#a47f47" fill-opacity="1"><g transform="translate(205.349101, 220.460112)"><g><path d="M 4.921875 -11.359375 C 5.523438 -11.359375 6.113281 -11.269531 6.6875 -11.09375 C 7.269531 -10.914062 7.695312 -10.738281 7.96875 -10.5625 L 8.375 -10.296875 L 7.359375 -8.265625 C 7.273438 -8.328125 7.160156 -8.398438 7.015625 -8.484375 C 6.867188 -8.566406 6.597656 -8.679688 6.203125 -8.828125 C 5.804688 -8.972656 5.4375 -9.046875 5.09375 -9.046875 C 4.664062 -9.046875 4.335938 -8.953125 4.109375 -8.765625 C 3.878906 -8.585938 3.765625 -8.347656 3.765625 -8.046875 C 3.765625 -7.890625 3.816406 -7.742188 3.921875 -7.609375 C 4.035156 -7.484375 4.222656 -7.34375 4.484375 -7.1875 C 4.742188 -7.039062 4.972656 -6.921875 5.171875 -6.828125 C 5.367188 -6.742188 5.675781 -6.613281 6.09375 -6.4375 C 6.8125 -6.125 7.425781 -5.703125 7.9375 -5.171875 C 8.445312 -4.648438 8.703125 -4.054688 8.703125 -3.390625 C 8.703125 -2.753906 8.585938 -2.195312 8.359375 -1.71875 C 8.128906 -1.238281 7.8125 -0.863281 7.40625 -0.59375 C 7.007812 -0.320312 6.566406 -0.125 6.078125 0 C 5.597656 0.132812 5.070312 0.203125 4.5 0.203125 C 4.007812 0.203125 3.53125 0.148438 3.0625 0.046875 C 2.59375 -0.046875 2.203125 -0.164062 1.890625 -0.3125 C 1.578125 -0.46875 1.289062 -0.613281 1.03125 -0.75 C 0.78125 -0.894531 0.597656 -1.019531 0.484375 -1.125 L 0.3125 -1.265625 L 1.578125 -3.40625 C 1.691406 -3.3125 1.84375 -3.195312 2.03125 -3.0625 C 2.21875 -2.925781 2.550781 -2.738281 3.03125 -2.5 C 3.507812 -2.269531 3.9375 -2.15625 4.3125 -2.15625 C 5.382812 -2.15625 5.921875 -2.519531 5.921875 -3.25 C 5.921875 -3.394531 5.878906 -3.53125 5.796875 -3.65625 C 5.722656 -3.789062 5.585938 -3.921875 5.390625 -4.046875 C 5.203125 -4.179688 5.03125 -4.285156 4.875 -4.359375 C 4.726562 -4.441406 4.488281 -4.5625 4.15625 -4.71875 C 3.820312 -4.875 3.570312 -4.992188 3.40625 -5.078125 C 2.726562 -5.410156 2.203125 -5.828125 1.828125 -6.328125 C 1.460938 -6.828125 1.28125 -7.367188 1.28125 -7.953125 C 1.28125 -8.953125 1.648438 -9.769531 2.390625 -10.40625 C 3.128906 -11.039062 3.972656 -11.359375 4.921875 -11.359375 Z M 4.921875 -11.359375 "/></g></g></g><g fill="#a47f47" fill-opacity="1"><g transform="translate(214.42898, 220.460112)"><g><path d="M 0.109375 -8.921875 L 0.109375 -11.15625 L 7.953125 -11.15625 L 7.953125 -8.921875 L 5.296875 -8.921875 L 5.296875 0 L 2.75 0 L 2.75 -8.921875 Z M 0.109375 -8.921875 "/></g></g></g><g fill="#a47f47" fill-opacity="1"><g transform="translate(222.481958, 220.460112)"><g><path d="M 6.46875 -11.15625 L 10.96875 0 L 8.25 0 L 7.421875 -2.234375 L 3.171875 -2.234375 L 2.359375 0 L -0.375 0 L 4.125 -11.15625 Z M 6.5625 -4.453125 L 5.3125 -7.703125 L 5.28125 -7.703125 L 4.046875 -4.453125 Z M 6.5625 -4.453125 "/></g></g></g><g fill="#a47f47" fill-opacity="1"><g transform="translate(233.075147, 220.460112)"><g><path d="M 9.375 -11.15625 L 9.375 -3.953125 C 9.375 -2.585938 9.003906 -1.550781 8.265625 -0.84375 C 7.523438 -0.144531 6.441406 0.203125 5.015625 0.203125 C 3.597656 0.203125 2.519531 -0.144531 1.78125 -0.84375 C 1.039062 -1.550781 0.671875 -2.585938 0.671875 -3.953125 L 0.671875 -11.15625 L 3.21875 -11.15625 L 3.21875 -4.703125 C 3.21875 -3.804688 3.359375 -3.179688 3.640625 -2.828125 C 3.921875 -2.472656 4.378906 -2.296875 5.015625 -2.296875 C 5.660156 -2.296875 6.125 -2.472656 6.40625 -2.828125 C 6.695312 -3.179688 6.84375 -3.804688 6.84375 -4.703125 L 6.84375 -11.15625 Z M 9.375 -11.15625 "/></g></g></g><g fill="#a47f47" fill-opacity="1"><g transform="translate(243.127865, 220.460112)"><g><path d="M 0.8125 -11.15625 L 4.796875 -11.15625 C 5.867188 -11.15625 6.742188 -10.867188 7.421875 -10.296875 C 8.097656 -9.722656 8.4375 -8.90625 8.4375 -7.84375 C 8.4375 -7.019531 8.226562 -6.332031 7.8125 -5.78125 C 7.40625 -5.226562 6.851562 -4.835938 6.15625 -4.609375 L 9.984375 0 L 6.765625 0 L 3.359375 -4.40625 L 3.359375 0 L 0.8125 0 Z M 3.359375 -6.203125 L 3.65625 -6.203125 C 3.882812 -6.203125 4.078125 -6.207031 4.234375 -6.21875 C 4.398438 -6.226562 4.585938 -6.257812 4.796875 -6.3125 C 5.003906 -6.363281 5.171875 -6.4375 5.296875 -6.53125 C 5.421875 -6.632812 5.523438 -6.78125 5.609375 -6.96875 C 5.703125 -7.164062 5.75 -7.394531 5.75 -7.65625 C 5.75 -7.925781 5.703125 -8.15625 5.609375 -8.34375 C 5.523438 -8.539062 5.421875 -8.6875 5.296875 -8.78125 C 5.171875 -8.882812 5.003906 -8.960938 4.796875 -9.015625 C 4.585938 -9.066406 4.398438 -9.097656 4.234375 -9.109375 C 4.078125 -9.117188 3.882812 -9.125 3.65625 -9.125 L 3.359375 -9.125 Z M 3.359375 -6.203125 "/></g></g></g><g fill="#a47f47" fill-opacity="1"><g transform="translate(252.802254, 220.460112)"><g><path d="M 6.46875 -11.15625 L 10.96875 0 L 8.25 0 L 7.421875 -2.234375 L 3.171875 -2.234375 L 2.359375 0 L -0.375 0 L 4.125 -11.15625 Z M 6.5625 -4.453125 L 5.3125 -7.703125 L 5.28125 -7.703125 L 4.046875 -4.453125 Z M 6.5625 -4.453125 "/></g></g></g><g fill="#a47f47" fill-opacity="1"><g transform="translate(263.395442, 220.460112)"><g><path d="M 3.359375 -6.921875 L 3.359375 0 L 0.8125 0 L 0.8125 -11.15625 L 3.359375 -11.15625 L 7.78125 -4.234375 L 7.8125 -4.234375 L 7.8125 -11.15625 L 10.359375 -11.15625 L 10.359375 0 L 7.8125 0 L 3.375 -6.921875 Z M 3.359375 -6.921875 "/></g></g></g><g fill="#a47f47" fill-opacity="1"><g transform="translate(274.55612, 220.460112)"><g><path d="M 0.109375 -8.921875 L 0.109375 -11.15625 L 7.953125 -11.15625 L 7.953125 -8.921875 L 5.296875 -8.921875 L 5.296875 0 L 2.75 0 L 2.75 -8.921875 Z M 0.109375 -8.921875 "/></g></g></g><g fill="#a47f47" fill-opacity="1"><g transform="translate(282.600469, 220.460112)"><g/></g></g><g fill="#ffffff" fill-opacity="1"><g transform="translate(93.84405, 234.776659)"><g><path d="M 0.09375 -7.421875 L 0.09375 -9.28125 L 6.609375 -9.28125 L 6.609375 -7.421875 L 4.40625 -7.421875 L 4.40625 0 L 2.296875 0 L 2.296875 -7.421875 Z M 0.09375 -7.421875 "/></g></g></g><g fill="#ffffff" fill-opacity="1"><g transform="translate(109.54138, 234.776659)"><g><path d="M 5.390625 -9.28125 L 9.140625 0 L 6.859375 0 L 6.171875 -1.859375 L 2.640625 -1.859375 L 1.953125 0 L -0.3125 0 L 3.4375 -9.28125 Z M 5.453125 -3.71875 L 4.421875 -6.40625 L 4.40625 -6.40625 L 3.359375 -3.71875 Z M 5.453125 -3.71875 "/></g></g></g><g fill="#ffffff" fill-opacity="1"><g transform="translate(127.352419, 234.776659)"><g><path d="M 4.09375 -9.453125 C 4.59375 -9.453125 5.082031 -9.378906 5.5625 -9.234375 C 6.039062 -9.085938 6.398438 -8.941406 6.640625 -8.796875 L 6.96875 -8.578125 L 6.125 -6.890625 C 6.050781 -6.929688 5.953125 -6.988281 5.828125 -7.0625 C 5.710938 -7.132812 5.488281 -7.226562 5.15625 -7.34375 C 4.832031 -7.46875 4.523438 -7.53125 4.234375 -7.53125 C 3.890625 -7.53125 3.617188 -7.453125 3.421875 -7.296875 C 3.234375 -7.148438 3.140625 -6.945312 3.140625 -6.6875 C 3.140625 -6.5625 3.179688 -6.441406 3.265625 -6.328125 C 3.359375 -6.222656 3.515625 -6.109375 3.734375 -5.984375 C 3.953125 -5.867188 4.144531 -5.769531 4.3125 -5.6875 C 4.476562 -5.613281 4.734375 -5.503906 5.078125 -5.359375 C 5.671875 -5.097656 6.179688 -4.75 6.609375 -4.3125 C 7.035156 -3.875 7.25 -3.378906 7.25 -2.828125 C 7.25 -2.296875 7.148438 -1.828125 6.953125 -1.421875 C 6.765625 -1.023438 6.503906 -0.710938 6.171875 -0.484375 C 5.835938 -0.265625 5.46875 -0.101562 5.0625 0 C 4.65625 0.113281 4.21875 0.171875 3.75 0.171875 C 3.34375 0.171875 2.941406 0.128906 2.546875 0.046875 C 2.160156 -0.0351562 1.835938 -0.140625 1.578125 -0.265625 C 1.316406 -0.390625 1.078125 -0.507812 0.859375 -0.625 C 0.648438 -0.75 0.5 -0.851562 0.40625 -0.9375 L 0.265625 -1.0625 L 1.3125 -2.828125 C 1.40625 -2.753906 1.53125 -2.660156 1.6875 -2.546875 C 1.84375 -2.429688 2.117188 -2.273438 2.515625 -2.078125 C 2.921875 -1.878906 3.28125 -1.78125 3.59375 -1.78125 C 4.476562 -1.78125 4.921875 -2.085938 4.921875 -2.703125 C 4.921875 -2.828125 4.890625 -2.941406 4.828125 -3.046875 C 4.765625 -3.160156 4.648438 -3.269531 4.484375 -3.375 C 4.328125 -3.488281 4.1875 -3.578125 4.0625 -3.640625 C 3.9375 -3.703125 3.734375 -3.796875 3.453125 -3.921875 C 3.171875 -4.054688 2.960938 -4.160156 2.828125 -4.234375 C 2.265625 -4.503906 1.828125 -4.847656 1.515625 -5.265625 C 1.210938 -5.679688 1.0625 -6.128906 1.0625 -6.609375 C 1.0625 -7.441406 1.367188 -8.125 1.984375 -8.65625 C 2.597656 -9.1875 3.300781 -9.453125 4.09375 -9.453125 Z M 4.09375 -9.453125 "/></g></g></g><g fill="#ffffff" fill-opacity="1"><g transform="translate(143.904225, 234.776659)"><g><path d="M 0.09375 -7.421875 L 0.09375 -9.28125 L 6.609375 -9.28125 L 6.609375 -7.421875 L 4.40625 -7.421875 L 4.40625 0 L 2.296875 0 L 2.296875 -7.421875 Z M 0.09375 -7.421875 "/></g></g></g><g fill="#ffffff" fill-opacity="1"><g transform="translate(159.601557, 234.776659)"><g><path d="M -0.34375 -9.28125 L 2.203125 -9.28125 L 4.140625 -6.3125 L 6.078125 -9.28125 L 8.625 -9.28125 L 5.203125 -4.15625 L 5.203125 0 L 3.078125 0 L 3.078125 -4.15625 Z M -0.34375 -9.28125 "/></g></g></g><g fill="#ffffff" fill-opacity="1"><g transform="translate(176.872923, 234.776659)"><g/></g></g><g fill="#ffffff" fill-opacity="1"><g transform="translate(188.938717, 234.776659)"><g><path d="M 5.609375 -1.90625 C 5.929688 -1.90625 6.242188 -1.953125 6.546875 -2.046875 C 6.859375 -2.148438 7.082031 -2.25 7.21875 -2.34375 L 7.4375 -2.484375 L 8.34375 -0.6875 C 8.3125 -0.664062 8.269531 -0.632812 8.21875 -0.59375 C 8.164062 -0.5625 8.039062 -0.492188 7.84375 -0.390625 C 7.65625 -0.285156 7.453125 -0.195312 7.234375 -0.125 C 7.015625 -0.0507812 6.726562 0.015625 6.375 0.078125 C 6.019531 0.140625 5.65625 0.171875 5.28125 0.171875 C 4.425781 0.171875 3.609375 -0.0390625 2.828125 -0.46875 C 2.054688 -0.894531 1.4375 -1.476562 0.96875 -2.21875 C 0.5 -2.957031 0.265625 -3.757812 0.265625 -4.625 C 0.265625 -5.28125 0.398438 -5.90625 0.671875 -6.5 C 0.953125 -7.101562 1.320312 -7.617188 1.78125 -8.046875 C 2.238281 -8.472656 2.773438 -8.8125 3.390625 -9.0625 C 4.003906 -9.320312 4.632812 -9.453125 5.28125 -9.453125 C 5.882812 -9.453125 6.4375 -9.378906 6.9375 -9.234375 C 7.445312 -9.085938 7.804688 -8.945312 8.015625 -8.8125 L 8.34375 -8.59375 L 7.4375 -6.796875 C 7.382812 -6.835938 7.304688 -6.890625 7.203125 -6.953125 C 7.097656 -7.015625 6.882812 -7.097656 6.5625 -7.203125 C 6.25 -7.316406 5.929688 -7.375 5.609375 -7.375 C 5.097656 -7.375 4.640625 -7.289062 4.234375 -7.125 C 3.835938 -6.957031 3.519531 -6.738281 3.28125 -6.46875 C 3.039062 -6.195312 2.859375 -5.90625 2.734375 -5.59375 C 2.609375 -5.28125 2.546875 -4.960938 2.546875 -4.640625 C 2.546875 -3.941406 2.8125 -3.3125 3.34375 -2.75 C 3.875 -2.1875 4.628906 -1.90625 5.609375 -1.90625 Z M 5.609375 -1.90625 "/></g></g></g><g fill="#ffffff" fill-opacity="1"><g transform="translate(206.401214, 234.776659)"><g><path d="M 0.265625 -4.640625 C 0.265625 -5.984375 0.71875 -7.117188 1.625 -8.046875 C 2.539062 -8.984375 3.644531 -9.453125 4.9375 -9.453125 C 6.238281 -9.453125 7.34375 -8.988281 8.25 -8.0625 C 9.15625 -7.132812 9.609375 -5.992188 9.609375 -4.640625 C 9.609375 -3.285156 9.160156 -2.144531 8.265625 -1.21875 C 7.378906 -0.289062 6.269531 0.171875 4.9375 0.171875 C 3.582031 0.171875 2.460938 -0.285156 1.578125 -1.203125 C 0.703125 -2.128906 0.265625 -3.273438 0.265625 -4.640625 Z M 2.546875 -4.640625 C 2.546875 -4.160156 2.617188 -3.71875 2.765625 -3.3125 C 2.921875 -2.914062 3.1875 -2.578125 3.5625 -2.296875 C 3.9375 -2.015625 4.394531 -1.875 4.9375 -1.875 C 5.726562 -1.875 6.320312 -2.144531 6.71875 -2.6875 C 7.125 -3.226562 7.328125 -3.878906 7.328125 -4.640625 C 7.328125 -5.398438 7.117188 -6.050781 6.703125 -6.59375 C 6.296875 -7.132812 5.707031 -7.40625 4.9375 -7.40625 C 4.175781 -7.40625 3.585938 -7.132812 3.171875 -6.59375 C 2.753906 -6.050781 2.546875 -5.398438 2.546875 -4.640625 Z M 2.546875 -4.640625 "/></g></g></g><g fill="#ffffff" fill-opacity="1"><g transform="translate(225.257861, 234.776659)"><g><path d="M 0.671875 -9.28125 L 4 -9.28125 C 4.882812 -9.28125 5.609375 -9.039062 6.171875 -8.5625 C 6.734375 -8.09375 7.015625 -7.414062 7.015625 -6.53125 C 7.015625 -5.84375 6.84375 -5.269531 6.5 -4.8125 C 6.164062 -4.351562 5.707031 -4.03125 5.125 -3.84375 L 8.3125 0 L 5.625 0 L 2.796875 -3.671875 L 2.796875 0 L 0.671875 0 Z M 2.796875 -5.15625 L 3.03125 -5.15625 C 3.226562 -5.15625 3.394531 -5.160156 3.53125 -5.171875 C 3.664062 -5.179688 3.816406 -5.207031 3.984375 -5.25 C 4.160156 -5.300781 4.300781 -5.363281 4.40625 -5.4375 C 4.507812 -5.519531 4.597656 -5.640625 4.671875 -5.796875 C 4.753906 -5.960938 4.796875 -6.15625 4.796875 -6.375 C 4.796875 -6.601562 4.753906 -6.796875 4.671875 -6.953125 C 4.597656 -7.109375 4.507812 -7.226562 4.40625 -7.3125 C 4.300781 -7.394531 4.160156 -7.457031 3.984375 -7.5 C 3.816406 -7.550781 3.664062 -7.578125 3.53125 -7.578125 C 3.394531 -7.585938 3.226562 -7.59375 3.03125 -7.59375 L 2.796875 -7.59375 Z M 2.796875 -5.15625 "/></g></g></g><g fill="#ffffff" fill-opacity="1"><g transform="translate(242.304366, 234.776659)"><g><path d="M 2.796875 -5.765625 L 2.796875 0 L 0.671875 0 L 0.671875 -9.28125 L 2.796875 -9.28125 L 6.484375 -3.515625 L 6.5 -3.515625 L 6.5 -9.28125 L 8.625 -9.28125 L 8.625 0 L 6.5 0 L 2.8125 -5.765625 Z M 2.796875 -5.765625 "/></g></g></g><g fill="#ffffff" fill-opacity="1"><g transform="translate(260.587607, 234.776659)"><g><path d="M 5.984375 -9.28125 L 5.984375 -7.421875 L 2.796875 -7.421875 L 2.796875 -5.578125 L 5.84375 -5.578125 L 5.84375 -3.71875 L 2.796875 -3.71875 L 2.796875 -1.859375 L 5.984375 -1.859375 L 5.984375 0 L 0.671875 0 L 0.671875 -9.28125 Z M 5.984375 -9.28125 "/></g></g></g><g fill="#ffffff" fill-opacity="1"><g transform="translate(276.105039, 234.776659)"><g><path d="M 0.671875 -9.28125 L 4 -9.28125 C 4.882812 -9.28125 5.609375 -9.039062 6.171875 -8.5625 C 6.734375 -8.09375 7.015625 -7.414062 7.015625 -6.53125 C 7.015625 -5.84375 6.84375 -5.269531 6.5 -4.8125 C 6.164062 -4.351562 5.707031 -4.03125 5.125 -3.84375 L 8.3125 0 L 5.625 0 L 2.796875 -3.671875 L 2.796875 0 L 0.671875 0 Z M 2.796875 -5.15625 L 3.03125 -5.15625 C 3.226562 -5.15625 3.394531 -5.160156 3.53125 -5.171875 C 3.664062 -5.179688 3.816406 -5.207031 3.984375 -5.25 C 4.160156 -5.300781 4.300781 -5.363281 4.40625 -5.4375 C 4.507812 -5.519531 4.597656 -5.640625 4.671875 -5.796875 C 4.753906 -5.960938 4.796875 -6.15625 4.796875 -6.375 C 4.796875 -6.601562 4.753906 -6.796875 4.671875 -6.953125 C 4.597656 -7.109375 4.507812 -7.226562 4.40625 -7.3125 C 4.300781 -7.394531 4.160156 -7.457031 3.984375 -7.5 C 3.816406 -7.550781 3.664062 -7.578125 3.53125 -7.578125 C 3.394531 -7.585938 3.226562 -7.59375 3.03125 -7.59375 L 2.796875 -7.59375 Z M 2.796875 -5.15625 "/></g></g></g><g clip-path="url(#bab130fca0)"><path fill="#ffffff" d="M 166.832031 153.457031 C 166.296875 153.457031 165.789062 153.691406 165.433594 154.089844 L 165.425781 154.101562 C 165.21875 154.339844 165.082031 154.617188 165.019531 154.902344 C 164.652344 154.984375 164.320312 155.179688 164.066406 155.457031 C 163.8125 155.730469 163.65625 156.066406 163.601562 156.410156 C 163.226562 156.472656 162.882812 156.644531 162.609375 156.910156 C 162.347656 157.164062 162.171875 157.480469 162.09375 157.8125 C 161.800781 157.882812 161.53125 158.023438 161.300781 158.222656 C 160.550781 158.878906 160.460938 160.035156 161.101562 160.804688 L 169.96875 171.5 L 169.988281 171.523438 C 171.175781 172.898438 172.804688 173.691406 174.570312 173.753906 C 174.644531 173.757812 174.71875 173.761719 174.796875 173.761719 C 175.71875 173.761719 176.617188 173.558594 177.449219 173.164062 C 178.445312 174.195312 179.527344 175.332031 180.789062 176.675781 C 181.003906 176.90625 181.222656 177.140625 181.441406 177.378906 C 180.898438 177.875 180.359375 178.359375 179.839844 178.832031 C 177.792969 180.675781 175.738281 182.488281 173.726562 184.214844 C 171.320312 186.289062 169.328125 187.9375 167.464844 189.410156 L 167.457031 189.414062 C 167.207031 189.613281 166.976562 189.84375 166.789062 190.085938 C 165.398438 191.847656 165.703125 194.410156 167.464844 195.800781 C 168.179688 196.363281 169.074219 196.671875 169.984375 196.671875 C 171.238281 196.671875 172.402344 196.109375 173.179688 195.121094 C 174.652344 193.257812 176.253906 191.324219 178.371094 188.859375 C 180.109375 186.839844 181.921875 184.785156 183.757812 182.75 C 184.179688 182.28125 184.613281 181.804688 185.058594 181.3125 C 185.492188 181.789062 185.902344 182.242188 186.292969 182.675781 C 188.136719 184.71875 189.949219 186.773438 191.679688 188.785156 C 193.796875 191.25 195.398438 193.179688 196.871094 195.046875 C 197.070312 195.300781 197.304688 195.53125 197.550781 195.726562 C 198.261719 196.285156 199.15625 196.597656 200.066406 196.597656 C 201.320312 196.597656 202.484375 196.035156 203.261719 195.046875 C 204.652344 193.289062 204.347656 190.722656 202.589844 189.335938 C 200.722656 187.863281 198.734375 186.214844 196.320312 184.140625 C 194.308594 182.410156 192.253906 180.597656 190.210938 178.757812 C 189.722656 178.3125 189.21875 177.855469 188.683594 177.371094 C 188.878906 177.164062 189.070312 176.957031 189.265625 176.75 C 190.625 175.296875 191.785156 174.078125 192.851562 172.984375 C 193.589844 173.21875 194.433594 173.339844 195.335938 173.339844 C 198.535156 173.339844 201.867188 171.914062 204.257812 169.527344 C 206.210938 167.574219 207.519531 165.027344 207.945312 162.347656 C 208.363281 159.722656 207.832031 157.375 206.523438 156.066406 C 205.539062 155.078125 203.925781 154.535156 201.992188 154.535156 C 198.777344 154.535156 195.441406 155.953125 193.0625 158.332031 C 191.339844 160.054688 190.113281 162.375 189.605469 164.863281 C 189.253906 166.601562 189.277344 168.324219 189.65625 169.6875 C 188.550781 170.765625 187.339844 171.914062 185.839844 173.324219 C 185.582031 173.5625 185.324219 173.804688 185.066406 174.042969 C 184.78125 173.78125 184.496094 173.515625 184.214844 173.25 C 182.824219 171.945312 181.691406 170.867188 180.652344 169.863281 C 181.023438 169.011719 181.199219 168.097656 181.160156 167.160156 C 181.089844 165.394531 180.28125 163.769531 178.890625 162.585938 L 178.855469 162.558594 L 167.992188 153.867188 C 167.664062 153.601562 167.25 153.457031 166.832031 153.457031 Z M 166.832031 154.949219 C 166.910156 154.949219 166.992188 154.976562 167.0625 155.03125 L 177.925781 163.722656 C 179 164.636719 179.613281 165.875 179.667969 167.21875 C 179.710938 168.269531 179.402344 169.277344 178.796875 170.136719 C 180.242188 171.554688 181.714844 172.953125 183.191406 174.335938 C 183.8125 174.921875 184.441406 175.496094 185.066406 176.074219 C 185.664062 175.523438 186.265625 174.972656 186.859375 174.414062 C 188.386719 172.984375 189.902344 171.542969 191.390625 170.078125 C 190.265625 167.851562 190.753906 162.753906 194.117188 159.386719 C 196.449219 157.054688 199.539062 156.027344 201.992188 156.027344 C 203.496094 156.027344 204.761719 156.414062 205.46875 157.121094 C 207.40625 159.0625 206.960938 164.710938 203.203125 168.472656 C 200.867188 170.804688 197.789062 171.847656 195.335938 171.847656 C 194.214844 171.847656 193.222656 171.628906 192.492188 171.21875 C 191.03125 172.703125 189.601562 174.210938 188.175781 175.730469 C 187.636719 176.300781 187.105469 176.882812 186.570312 177.460938 C 187.449219 178.265625 188.328125 179.066406 189.210938 179.863281 C 191.234375 181.691406 193.28125 183.492188 195.347656 185.273438 C 197.417969 187.050781 199.511719 188.808594 201.664062 190.503906 C 202.78125 191.386719 202.972656 193.007812 202.089844 194.125 C 201.582031 194.769531 200.828125 195.105469 200.066406 195.105469 C 199.507812 195.105469 198.945312 194.925781 198.472656 194.550781 C 198.3125 194.429688 198.164062 194.277344 198.046875 194.125 C 196.347656 191.972656 194.589844 189.882812 192.808594 187.8125 C 191.03125 185.742188 189.226562 183.699219 187.402344 181.675781 C 186.625 180.8125 185.84375 179.953125 185.058594 179.097656 C 184.253906 179.976562 183.449219 180.863281 182.648438 181.75 C 180.824219 183.773438 179.019531 185.816406 177.242188 187.886719 C 175.460938 189.953125 173.703125 192.046875 172.007812 194.199219 C 171.5 194.84375 170.742188 195.179688 169.984375 195.179688 C 169.421875 195.179688 168.863281 195 168.390625 194.628906 C 167.269531 193.746094 167.082031 192.125 167.960938 191.007812 C 168.085938 190.847656 168.238281 190.699219 168.390625 190.582031 C 170.539062 188.882812 172.632812 187.125 174.703125 185.347656 C 176.769531 183.566406 178.816406 181.765625 180.839844 179.9375 C 181.75 179.117188 182.65625 178.292969 183.558594 177.46875 C 183 176.863281 182.441406 176.253906 181.875 175.652344 C 180.496094 174.183594 179.105469 172.71875 177.691406 171.277344 C 176.847656 171.917969 175.84375 172.269531 174.796875 172.269531 C 174.738281 172.269531 174.679688 172.265625 174.625 172.265625 C 173.277344 172.214844 172.03125 171.605469 171.117188 170.550781 L 162.246094 159.851562 C 162.121094 159.699219 162.136719 159.476562 162.285156 159.347656 C 162.355469 159.28125 162.441406 159.253906 162.53125 159.253906 C 162.625 159.253906 162.722656 159.289062 162.792969 159.363281 L 171.925781 168.800781 C 172 168.882812 172.085938 168.929688 172.171875 168.929688 L 172.179688 168.929688 C 172.226562 168.929688 172.289062 168.917969 172.34375 168.863281 C 172.460938 168.746094 172.445312 168.53125 172.3125 168.386719 L 163.628906 158.488281 C 163.5 158.339844 163.503906 158.121094 163.648438 157.984375 C 163.71875 157.914062 163.808594 157.878906 163.902344 157.878906 C 163.992188 157.878906 164.082031 157.910156 164.152344 157.972656 L 173.839844 166.855469 C 173.921875 166.941406 174.015625 166.984375 174.109375 166.984375 C 174.160156 166.984375 174.234375 166.972656 174.296875 166.910156 C 174.359375 166.851562 174.371094 166.777344 174.371094 166.726562 C 174.371094 166.632812 174.328125 166.539062 174.253906 166.472656 L 165.167969 156.96875 C 165.035156 156.828125 165.03125 156.605469 165.167969 156.464844 C 165.234375 156.386719 165.332031 156.347656 165.429688 156.347656 C 165.515625 156.347656 165.601562 156.378906 165.667969 156.4375 L 175.757812 164.917969 C 175.84375 164.996094 175.949219 165.035156 176.042969 165.035156 C 176.125 165.035156 176.195312 165.007812 176.25 164.957031 C 176.308594 164.898438 176.316406 164.832031 176.316406 164.789062 C 176.3125 164.703125 176.273438 164.617188 176.195312 164.554688 L 166.582031 155.585938 C 166.4375 155.449219 166.425781 155.226562 166.554688 155.078125 C 166.628906 154.996094 166.730469 154.949219 166.832031 154.949219 " fill-opacity="1" fill-rule="nonzero"/></g></svg>