<?xml version="1.0" standalone="no"?>
<!DOCTYPE svg PUBLIC "-//W3C//DTD SVG 20010904//EN"
 "http://www.w3.org/TR/2001/REC-SVG-20010904/DTD/svg10.dtd">
<svg version="1.0" xmlns="http://www.w3.org/2000/svg"
 width="393.000000pt" height="212.000000pt" viewBox="0 0 393.000000 212.000000"
 preserveAspectRatio="xMidYMid meet">

<g transform="translate(0.000000,212.000000) scale(0.100000,-0.100000)"
fill="#000000" stroke="none">
<path d="M50 2081 c0 -24 -9 -52 -25 -75 -25 -37 -25 -41 -23 -188 2 -103 7
-153 14 -155 7 -2 31 16 54 41 41 44 127 85 148 72 10 -6 478 97 488 107 11
11 -51 77 -73 77 -12 0 -42 -18 -67 -39 -53 -46 -100 -64 -170 -64 -120 -1
-218 109 -200 222 l7 41 -77 0 -76 0 0 -39z"/>
<path d="M1097 2063 c-3 -32 -9 -69 -13 -82 -6 -20 -4 -22 12 -18 10 3 53 13
94 22 42 9 80 19 86 23 5 4 8 31 6 60 l-4 52 -88 0 -87 0 -6 -57z"/>
<path d="M2805 2103 c4 -10 11 -43 17 -75 10 -56 10 -56 53 -67 24 -6 48 -11
54 -11 5 0 15 26 21 58 6 31 13 69 16 85 l6 27 -87 0 c-79 0 -86 -2 -80 -17z"/>
<path d="M1830 2059 c-128 -18 -1577 -342 -1610 -359 -51 -26 -124 -109 -138
-158 -8 -28 -12 -163 -12 -454 0 -360 2 -421 17 -463 17 -52 79 -122 130 -149
29 -14 1464 -342 1607 -367 42 -7 117 -10 190 -6 111 4 186 19 900 182 429 97
789 181 800 187 50 26 106 82 130 130 l26 52 0 433 c0 353 -3 440 -14 468 -19
45 -91 122 -136 145 -36 18 -1485 341 -1615 360 -81 11 -196 11 -275 -1z m-45
-390 c90 -73 98 -83 97 -123 -1 -24 6 -40 26 -59 l28 -27 30 33 c20 21 31 44
33 66 4 84 68 151 150 159 63 6 91 -18 91 -79 0 -91 -63 -159 -155 -167 -44
-4 -57 -9 -74 -32 l-20 -28 99 -87 c104 -90 118 -115 84 -149 -32 -33 -59 -20
-132 67 -114 134 -97 130 -178 35 -96 -113 -101 -118 -129 -118 -29 0 -60 40
-51 67 3 10 51 56 106 102 l100 85 -27 28 c-19 20 -33 26 -49 22 -40 -10 -83
28 -193 169 -13 16 -10 22 29 62 24 24 48 41 54 38 6 -4 43 -32 81 -64z
m-1044 -736 l13 -58 14 58 c8 31 20 57 26 57 7 0 18 -24 26 -52 l14 -53 14 53
c9 30 21 52 28 52 18 0 18 -2 -4 -80 -23 -79 -48 -89 -67 -25 l-12 40 -13 -42
c-9 -30 -19 -43 -32 -43 -10 0 -18 3 -18 8 0 4 -9 37 -19 75 -19 65 -19 67 -1
67 14 0 21 -13 31 -57z m249 42 c0 -9 -9 -15 -25 -15 -16 0 -25 -6 -25 -15 0
-9 9 -15 25 -15 16 0 25 -6 25 -15 0 -9 -9 -15 -25 -15 -16 0 -25 -6 -25 -15
0 -9 9 -15 25 -15 16 0 25 -6 25 -15 0 -11 -11 -15 -40 -15 l-40 0 0 75 0 75
40 0 c29 0 40 -4 40 -15z m96 1 c16 -13 17 -18 6 -36 -10 -17 -10 -21 3 -26 8
-4 15 -17 15 -30 0 -26 -31 -44 -76 -44 -23 0 -24 2 -24 75 l0 75 28 0 c16 0
37 -6 48 -14z m182 -3 c2 -8 -6 -13 -22 -13 -34 0 -33 -11 4 -38 17 -13 30
-32 30 -43 0 -25 -40 -44 -75 -35 -37 9 -26 32 13 28 40 -4 41 8 2 36 -34 25
-39 56 -12 71 22 14 54 10 60 -6z m72 -8 l14 -26 21 27 c33 41 50 26 20 -18
-15 -22 -25 -51 -25 -72 0 -25 -4 -36 -15 -36 -11 0 -15 11 -15 36 0 20 -8 48
-18 62 -33 48 -34 52 -14 52 10 0 25 -11 32 -25z m181 10 c0 -5 -12 -11 -26
-13 -33 -4 -32 -18 5 -37 60 -31 23 -98 -45 -81 -37 9 -26 32 13 28 37 -4 46
22 12 33 -33 10 -45 43 -24 66 18 20 65 23 65 4z m129 0 c0 -8 -9 -15 -20 -15
-18 0 -20 -7 -20 -60 0 -47 -3 -60 -15 -60 -12 0 -15 13 -15 60 0 47 -3 60
-15 60 -8 0 -15 7 -15 15 0 11 12 15 50 15 38 0 50 -4 50 -15z m90 0 c0 -9 -9
-15 -25 -15 -16 0 -25 -6 -25 -15 0 -9 9 -15 25 -15 16 0 25 -6 25 -15 0 -9
-9 -15 -25 -15 -16 0 -25 -6 -25 -15 0 -9 9 -15 25 -15 16 0 25 -6 25 -15 0
-11 -11 -15 -40 -15 l-40 0 0 75 0 75 40 0 c29 0 40 -4 40 -15z m81 -25 c7
-22 16 -40 20 -40 5 0 14 18 20 40 14 45 49 58 49 18 0 -13 3 -47 6 -75 6 -45
4 -53 -10 -53 -12 0 -16 9 -16 33 0 47 -12 54 -26 15 -14 -42 -34 -42 -48 0
-14 39 -26 32 -26 -15 0 -24 -4 -33 -16 -33 -14 0 -16 8 -10 46 3 26 6 60 6
75 0 22 5 29 20 29 14 0 22 -11 31 -40z m240 30 c21 -12 25 -50 8 -67 -9 -9
-6 -19 11 -40 18 -24 19 -28 6 -31 -9 -2 -27 9 -41 25 l-24 28 -1 -27 c0 -18
-5 -28 -15 -28 -12 0 -15 15 -15 75 0 74 0 75 26 75 14 0 34 -5 45 -10z m139
-5 c0 -9 -9 -15 -25 -15 -16 0 -25 -6 -25 -15 0 -9 9 -15 25 -15 16 0 25 -6
25 -15 0 -9 -9 -15 -25 -15 -16 0 -25 -6 -25 -15 0 -9 9 -15 25 -15 16 0 25
-6 25 -15 0 -11 -11 -15 -40 -15 l-40 0 0 75 0 75 40 0 c29 0 40 -4 40 -15z
m108 -2 c2 -8 -6 -13 -22 -13 -34 0 -33 -8 5 -40 24 -20 30 -31 25 -47 -8 -26
-38 -37 -72 -29 -36 9 -24 32 14 28 40 -4 41 12 2 35 -34 20 -40 56 -12 72 22
14 54 10 60 -6z m122 2 c0 -8 -7 -15 -15 -15 -12 0 -15 -13 -15 -60 0 -47 -3
-60 -15 -60 -12 0 -15 13 -15 60 0 53 -2 60 -20 60 -11 0 -20 7 -20 15 0 11
12 15 50 15 38 0 50 -4 50 -15z m118 -57 c19 -46 26 -74 20 -77 -6 -2 -17 4
-23 13 -16 21 -64 21 -81 -1 -25 -35 -24 -4 3 66 15 39 33 71 39 71 6 0 25
-33 42 -72z m74 15 c3 -50 6 -58 23 -58 17 0 20 8 23 58 2 43 7 57 18 57 12 0
14 -12 12 -62 -3 -56 -6 -64 -30 -77 -21 -12 -31 -13 -52 -3 -24 11 -26 16
-26 77 0 50 3 65 15 65 10 0 15 -15 17 -57z m179 47 c23 -13 25 -55 3 -64 -13
-5 -13 -10 6 -36 12 -16 24 -30 28 -30 4 0 19 30 33 68 39 101 47 97 105 -60
4 -12 1 -18 -9 -18 -8 0 -17 7 -21 15 -3 9 -18 15 -36 15 -18 0 -33 -6 -36
-15 -11 -28 -65 -18 -95 18 l-28 32 -1 -32 c0 -23 -5 -33 -15 -33 -12 0 -15
15 -15 75 l0 75 31 0 c17 0 39 -5 50 -10z m254 -38 l30 -47 3 48 c2 33 7 47
18 47 11 0 14 -16 14 -75 0 -93 -14 -98 -65 -23 l-35 53 0 -53 c0 -40 -4 -52
-15 -52 -12 0 -15 15 -15 75 0 65 2 75 18 75 9 0 30 -20 47 -48z m175 33 c0
-8 -7 -15 -15 -15 -12 0 -15 -13 -15 -60 0 -47 -3 -60 -15 -60 -12 0 -15 13
-15 60 0 53 -2 60 -20 60 -11 0 -20 7 -20 15 0 11 12 15 50 15 38 0 50 -4 50
-15z m-2420 -210 c0 -8 -7 -15 -15 -15 -11 0 -15 -12 -15 -50 0 -38 -4 -50
-15 -50 -11 0 -15 12 -15 50 0 38 -4 50 -15 50 -8 0 -15 7 -15 15 0 11 12 15
45 15 33 0 45 -4 45 -15z m216 -50 c28 -69 28 -65 9 -65 -8 0 -15 5 -15 10 0
6 -13 10 -30 10 -16 0 -30 -4 -30 -10 0 -5 -7 -10 -16 -10 -11 0 -14 6 -8 23
18 56 45 108 55 105 6 -2 22 -30 35 -63z m223 56 c19 -12 5 -30 -19 -24 -29 8
-25 -12 6 -25 20 -10 25 -18 22 -40 -2 -21 -9 -28 -31 -30 -38 -5 -58 4 -51
21 3 9 15 12 32 9 l27 -4 -27 26 c-32 31 -34 39 -12 60 17 18 32 20 53 7z
m229 -8 c2 -7 -3 -13 -12 -13 -12 0 -16 -11 -16 -50 0 -38 -4 -50 -15 -50 -11
0 -15 12 -15 50 0 38 -4 50 -15 50 -8 0 -15 7 -15 16 0 12 9 14 42 12 23 -2
43 -9 46 -15z m162 -5 l17 -22 12 22 c6 12 18 22 26 22 20 0 19 -10 -5 -40
-11 -14 -20 -40 -20 -57 0 -23 -5 -33 -15 -33 -10 0 -15 10 -15 28 0 15 -11
44 -25 65 -21 30 -23 37 -9 37 8 0 24 -10 34 -22z m449 13 c20 -13 6 -28 -25
-28 -52 0 -50 -59 3 -65 14 -2 28 -9 31 -16 3 -10 -6 -12 -33 -10 -51 4 -81
42 -66 81 14 37 61 56 90 38z m235 -12 c47 -37 24 -109 -35 -109 -80 0 -78
119 2 129 4 1 18 -8 33 -20z m213 15 c27 -7 36 -29 22 -55 -8 -16 -7 -26 6
-45 14 -22 14 -24 -1 -24 -9 0 -24 10 -35 23 l-18 22 -1 -22 c0 -14 -6 -23
-15 -23 -12 0 -15 14 -15 65 0 69 4 73 57 59z m225 -37 l28 -42 0 43 c0 70 24
47 28 -26 3 -55 1 -62 -16 -62 -10 0 -27 15 -40 38 l-22 37 0 -37 c0 -27 -4
-38 -15 -38 -12 0 -15 14 -15 65 0 78 13 84 52 22z m463 30 c14 -11 17 -21 11
-47 -4 -24 -2 -38 10 -52 16 -17 16 -18 -3 -18 -11 0 -28 10 -36 23 l-16 22 0
-22 c-1 -14 -7 -23 -16 -23 -12 0 -15 14 -15 65 0 61 1 65 23 65 13 0 31 -6
42 -13z m-195 -7 c0 -5 -11 -10 -25 -10 -16 0 -25 -6 -25 -15 0 -8 9 -15 20
-15 11 0 20 -4 20 -10 0 -5 -9 -10 -20 -10 -27 0 -26 -18 2 -22 41 -6 32 -28
-11 -28 l-41 0 0 60 0 60 40 0 c22 0 40 -4 40 -10z"/>
<path d="M1756 1645 c73 -71 65 -70 -26 5 -56 46 -48 29 24 -47 58 -62 35 -53
-35 14 -32 31 -59 51 -59 46 0 -6 7 -16 15 -23 9 -7 34 -36 57 -64 41 -50 41
-50 -26 14 -80 76 -76 60 8 -35 54 -61 62 -67 92 -63 29 3 40 -2 74 -37 l41
-42 -103 -88 c-118 -101 -126 -111 -105 -132 24 -24 47 -8 136 98 46 54 86 99
90 99 3 0 44 -45 90 -100 86 -102 100 -113 126 -104 32 12 13 44 -67 112 -46
39 -93 81 -105 94 l-21 23 33 39 c30 36 38 40 82 40 85 2 147 66 141 149 -3
37 -6 42 -34 50 -24 7 -42 4 -77 -11 -57 -25 -87 -70 -87 -131 0 -38 -5 -48
-42 -81 l-43 -38 -37 36 c-31 29 -38 43 -38 74 0 35 -6 42 -76 100 -102 84
-112 85 -28 3z"/>
<path d="M1040 951 c0 -12 6 -21 16 -21 9 0 14 7 12 17 -5 25 -28 28 -28 4z"/>
<path d="M1040 885 c0 -27 1 -28 24 -19 28 11 13 44 -20 44 -2 0 -4 -11 -4
-25z"/>
<path d="M2020 946 c0 -17 5 -26 16 -26 10 0 14 7 12 22 -5 32 -28 35 -28 4z"/>
<path d="M2496 933 c-12 -12 -6 -33 9 -33 8 0 15 6 15 14 0 17 -14 28 -24 19z"/>
<path d="M2752 948 c2 -12 9 -23 15 -26 19 -6 29 28 12 39 -23 14 -31 10 -27
-13z"/>
<path d="M2897 920 c-4 -15 0 -20 13 -20 13 0 17 5 13 20 -3 11 -9 20 -13 20
-4 0 -10 -9 -13 -20z"/>
<path d="M980 710 c0 -5 5 -10 10 -10 6 0 10 5 10 10 0 6 -4 10 -10 10 -5 0
-10 -4 -10 -10z"/>
<path d="M2271 740 c-7 -4 -11 -18 -9 -31 4 -28 42 -39 51 -15 13 32 -16 63
-42 46z"/>
<path d="M2510 735 c0 -9 5 -15 11 -13 6 2 11 8 11 13 0 5 -5 11 -11 13 -6 2
-11 -4 -11 -13z"/>
<path d="M3190 735 c0 -8 5 -15 10 -15 6 0 10 7 10 15 0 8 -4 15 -10 15 -5 0
-10 -7 -10 -15z"/>
<path d="M2 778 l-2 -778 1965 0 1965 0 0 303 c0 300 -1 302 -19 262 -52 -115
-99 -140 -381 -204 -715 -163 -1334 -301 -1394 -312 -42 -7 -121 -10 -205 -6
-123 4 -166 11 -450 76 -293 68 -339 75 -432 71 -25 -2 -55 8 -94 30 -47 26
-123 47 -409 112 -193 44 -366 87 -385 96 -45 21 -95 72 -123 125 -23 41 -23
48 -28 522 -5 451 -6 433 -8 -297z"/>
</g>
</svg>
