<svg xmlns="http://www.w3.org/2000/svg" xmlns:xlink="http://www.w3.org/1999/xlink" width="500" zoomAndPan="magnify" viewBox="0 0 375 374.999991" height="500" preserveAspectRatio="xMidYMid meet" version="1.0"><defs><g/><clipPath id="ddf6e4b0dc"><path d="M 39.921875 123.472656 L 335.421875 123.472656 L 335.421875 280.972656 L 39.921875 280.972656 Z M 39.921875 123.472656 " clip-rule="nonzero"/></clipPath><clipPath id="8eabb4a9b7"><path d="M 45.046875 128.710938 L 330.046875 128.710938 L 330.046875 275.710938 L 45.046875 275.710938 Z M 45.046875 128.710938 " clip-rule="nonzero"/></clipPath><clipPath id="6955f32143"><path d="M 66 179 L 113.265625 179 L 113.265625 223 L 66 223 Z M 66 179 " clip-rule="nonzero"/></clipPath></defs><g clip-path="url(#ddf6e4b0dc)"><path fill="#a47f47" d="M 319.519531 150.476562 L 203.566406 124.921875 C 194.835938 122.992188 180.507812 122.992188 171.777344 124.921875 L 55.820312 150.476562 C 47.089844 152.40625 39.925781 161.328125 39.925781 170.308594 L 39.925781 233.113281 C 39.925781 242.273438 47.089844 251.378906 55.820312 253.367188 L 171.777344 279.527344 C 180.507812 281.515625 194.835938 281.515625 203.566406 279.527344 L 319.519531 253.367188 C 328.25 251.378906 335.414062 242.273438 335.414062 233.113281 L 335.414062 170.308594 C 335.414062 161.328125 328.25 152.40625 319.519531 150.476562 " fill-opacity="1" fill-rule="nonzero"/></g><g clip-path="url(#8eabb4a9b7)"><path fill="#111b1e" d="M 314.714844 154.777344 L 202.878906 130.109375 C 194.457031 128.246094 180.636719 128.246094 172.21875 130.109375 L 60.382812 154.777344 C 51.964844 156.640625 45.054688 165.25 45.054688 173.921875 L 45.054688 229.515625 C 45.054688 238.359375 51.964844 247.144531 60.382812 249.0625 L 172.21875 274.316406 C 180.636719 276.234375 194.457031 276.234375 202.878906 274.316406 L 314.714844 249.0625 C 323.132812 247.144531 330.042969 238.359375 330.042969 229.515625 L 330.042969 173.921875 C 330.042969 165.25 323.132812 156.640625 314.714844 154.777344 " fill-opacity="1" fill-rule="nonzero"/></g><g fill="#a47f47" fill-opacity="1"><g transform="translate(126.053976, 198.598492)"><g><path d="M 9.359375 0 L 7.578125 -6.25 L 5.796875 0 L 2.96875 0 L -0.203125 -11.15625 L 2.625 -11.15625 L 4.53125 -3.5 L 4.59375 -3.5 L 6.625 -11.15625 L 8.546875 -11.15625 L 10.5625 -3.5 L 10.640625 -3.5 L 12.546875 -11.15625 L 15.359375 -11.15625 L 12.171875 0 Z M 9.359375 0 "/></g></g></g><g fill="#a47f47" fill-opacity="1"><g transform="translate(141.200608, 198.598492)"><g><path d="M 7.1875 -11.15625 L 7.1875 -8.921875 L 3.359375 -8.921875 L 3.359375 -6.703125 L 7.03125 -6.703125 L 7.03125 -4.46875 L 3.359375 -4.46875 L 3.359375 -2.234375 L 7.1875 -2.234375 L 7.1875 0 L 0.8125 0 L 0.8125 -11.15625 Z M 7.1875 -11.15625 "/></g></g></g><g fill="#a47f47" fill-opacity="1"><g transform="translate(149.037408, 198.598492)"><g><path d="M 0.8125 -11.15625 L 4.265625 -11.15625 C 5.316406 -11.15625 6.148438 -10.929688 6.765625 -10.484375 C 7.390625 -10.035156 7.703125 -9.3125 7.703125 -8.3125 C 7.703125 -7.195312 7.238281 -6.398438 6.3125 -5.921875 C 7.894531 -5.640625 8.6875 -4.703125 8.6875 -3.109375 C 8.6875 -2.171875 8.363281 -1.414062 7.71875 -0.84375 C 7.070312 -0.28125 6.179688 0 5.046875 0 L 0.8125 0 Z M 3.359375 -6.78125 L 3.546875 -6.78125 C 4.117188 -6.78125 4.546875 -6.878906 4.828125 -7.078125 C 5.109375 -7.273438 5.25 -7.601562 5.25 -8.0625 C 5.25 -8.8125 4.679688 -9.1875 3.546875 -9.1875 L 3.359375 -9.1875 Z M 3.359375 -1.953125 L 4.15625 -1.953125 C 5.394531 -1.953125 6.015625 -2.367188 6.015625 -3.203125 C 6.015625 -3.703125 5.859375 -4.054688 5.546875 -4.265625 C 5.234375 -4.484375 4.769531 -4.59375 4.15625 -4.59375 L 3.359375 -4.59375 Z M 3.359375 -1.953125 "/></g></g></g><g fill="#a47f47" fill-opacity="1"><g transform="translate(158.036205, 198.598492)"><g/></g></g><g fill="#a47f47" fill-opacity="1"><g transform="translate(161.724899, 198.598492)"><g><path d="M 4.921875 -11.359375 C 5.523438 -11.359375 6.113281 -11.269531 6.6875 -11.09375 C 7.269531 -10.914062 7.695312 -10.738281 7.96875 -10.5625 L 8.375 -10.296875 L 7.359375 -8.265625 C 7.273438 -8.328125 7.160156 -8.398438 7.015625 -8.484375 C 6.867188 -8.566406 6.597656 -8.679688 6.203125 -8.828125 C 5.804688 -8.972656 5.4375 -9.046875 5.09375 -9.046875 C 4.664062 -9.046875 4.335938 -8.953125 4.109375 -8.765625 C 3.878906 -8.585938 3.765625 -8.347656 3.765625 -8.046875 C 3.765625 -7.890625 3.816406 -7.742188 3.921875 -7.609375 C 4.035156 -7.484375 4.222656 -7.34375 4.484375 -7.1875 C 4.742188 -7.039062 4.972656 -6.921875 5.171875 -6.828125 C 5.367188 -6.742188 5.675781 -6.613281 6.09375 -6.4375 C 6.8125 -6.125 7.425781 -5.703125 7.9375 -5.171875 C 8.445312 -4.648438 8.703125 -4.054688 8.703125 -3.390625 C 8.703125 -2.753906 8.585938 -2.195312 8.359375 -1.71875 C 8.128906 -1.238281 7.8125 -0.863281 7.40625 -0.59375 C 7.007812 -0.320312 6.566406 -0.125 6.078125 0 C 5.597656 0.132812 5.070312 0.203125 4.5 0.203125 C 4.007812 0.203125 3.53125 0.148438 3.0625 0.046875 C 2.59375 -0.046875 2.203125 -0.164062 1.890625 -0.3125 C 1.578125 -0.46875 1.289062 -0.613281 1.03125 -0.75 C 0.78125 -0.894531 0.597656 -1.019531 0.484375 -1.125 L 0.3125 -1.265625 L 1.578125 -3.40625 C 1.691406 -3.3125 1.84375 -3.195312 2.03125 -3.0625 C 2.21875 -2.925781 2.550781 -2.738281 3.03125 -2.5 C 3.507812 -2.269531 3.9375 -2.15625 4.3125 -2.15625 C 5.382812 -2.15625 5.921875 -2.519531 5.921875 -3.25 C 5.921875 -3.394531 5.878906 -3.53125 5.796875 -3.65625 C 5.722656 -3.789062 5.585938 -3.921875 5.390625 -4.046875 C 5.203125 -4.179688 5.03125 -4.285156 4.875 -4.359375 C 4.726562 -4.441406 4.488281 -4.5625 4.15625 -4.71875 C 3.820312 -4.875 3.570312 -4.992188 3.40625 -5.078125 C 2.726562 -5.410156 2.203125 -5.828125 1.828125 -6.328125 C 1.460938 -6.828125 1.28125 -7.367188 1.28125 -7.953125 C 1.28125 -8.953125 1.648438 -9.769531 2.390625 -10.40625 C 3.128906 -11.039062 3.972656 -11.359375 4.921875 -11.359375 Z M 4.921875 -11.359375 "/></g></g></g><g fill="#a47f47" fill-opacity="1"><g transform="translate(170.804778, 198.598492)"><g><path d="M -0.40625 -11.15625 L 2.65625 -11.15625 L 4.96875 -7.578125 L 7.296875 -11.15625 L 10.359375 -11.15625 L 6.25 -5 L 6.25 0 L 3.703125 0 L 3.703125 -5 Z M -0.40625 -11.15625 "/></g></g></g><g fill="#a47f47" fill-opacity="1"><g transform="translate(180.749407, 198.598492)"><g><path d="M 4.921875 -11.359375 C 5.523438 -11.359375 6.113281 -11.269531 6.6875 -11.09375 C 7.269531 -10.914062 7.695312 -10.738281 7.96875 -10.5625 L 8.375 -10.296875 L 7.359375 -8.265625 C 7.273438 -8.328125 7.160156 -8.398438 7.015625 -8.484375 C 6.867188 -8.566406 6.597656 -8.679688 6.203125 -8.828125 C 5.804688 -8.972656 5.4375 -9.046875 5.09375 -9.046875 C 4.664062 -9.046875 4.335938 -8.953125 4.109375 -8.765625 C 3.878906 -8.585938 3.765625 -8.347656 3.765625 -8.046875 C 3.765625 -7.890625 3.816406 -7.742188 3.921875 -7.609375 C 4.035156 -7.484375 4.222656 -7.34375 4.484375 -7.1875 C 4.742188 -7.039062 4.972656 -6.921875 5.171875 -6.828125 C 5.367188 -6.742188 5.675781 -6.613281 6.09375 -6.4375 C 6.8125 -6.125 7.425781 -5.703125 7.9375 -5.171875 C 8.445312 -4.648438 8.703125 -4.054688 8.703125 -3.390625 C 8.703125 -2.753906 8.585938 -2.195312 8.359375 -1.71875 C 8.128906 -1.238281 7.8125 -0.863281 7.40625 -0.59375 C 7.007812 -0.320312 6.566406 -0.125 6.078125 0 C 5.597656 0.132812 5.070312 0.203125 4.5 0.203125 C 4.007812 0.203125 3.53125 0.148438 3.0625 0.046875 C 2.59375 -0.046875 2.203125 -0.164062 1.890625 -0.3125 C 1.578125 -0.46875 1.289062 -0.613281 1.03125 -0.75 C 0.78125 -0.894531 0.597656 -1.019531 0.484375 -1.125 L 0.3125 -1.265625 L 1.578125 -3.40625 C 1.691406 -3.3125 1.84375 -3.195312 2.03125 -3.0625 C 2.21875 -2.925781 2.550781 -2.738281 3.03125 -2.5 C 3.507812 -2.269531 3.9375 -2.15625 4.3125 -2.15625 C 5.382812 -2.15625 5.921875 -2.519531 5.921875 -3.25 C 5.921875 -3.394531 5.878906 -3.53125 5.796875 -3.65625 C 5.722656 -3.789062 5.585938 -3.921875 5.390625 -4.046875 C 5.203125 -4.179688 5.03125 -4.285156 4.875 -4.359375 C 4.726562 -4.441406 4.488281 -4.5625 4.15625 -4.71875 C 3.820312 -4.875 3.570312 -4.992188 3.40625 -5.078125 C 2.726562 -5.410156 2.203125 -5.828125 1.828125 -6.328125 C 1.460938 -6.828125 1.28125 -7.367188 1.28125 -7.953125 C 1.28125 -8.953125 1.648438 -9.769531 2.390625 -10.40625 C 3.128906 -11.039062 3.972656 -11.359375 4.921875 -11.359375 Z M 4.921875 -11.359375 "/></g></g></g><g fill="#a47f47" fill-opacity="1"><g transform="translate(189.829286, 198.598492)"><g><path d="M 0.109375 -8.921875 L 0.109375 -11.15625 L 7.953125 -11.15625 L 7.953125 -8.921875 L 5.296875 -8.921875 L 5.296875 0 L 2.75 0 L 2.75 -8.921875 Z M 0.109375 -8.921875 "/></g></g></g><g fill="#a47f47" fill-opacity="1"><g transform="translate(197.882264, 198.598492)"><g><path d="M 7.1875 -11.15625 L 7.1875 -8.921875 L 3.359375 -8.921875 L 3.359375 -6.703125 L 7.03125 -6.703125 L 7.03125 -4.46875 L 3.359375 -4.46875 L 3.359375 -2.234375 L 7.1875 -2.234375 L 7.1875 0 L 0.8125 0 L 0.8125 -11.15625 Z M 7.1875 -11.15625 "/></g></g></g><g fill="#a47f47" fill-opacity="1"><g transform="translate(205.719063, 198.598492)"><g><path d="M 10.03125 0 L 9.5 -6.609375 L 9.4375 -6.609375 L 7.15625 -0.0625 L 5.640625 -0.0625 L 3.359375 -6.609375 L 3.28125 -6.609375 L 2.75 0 L 0.21875 0 L 1.21875 -11.15625 L 3.921875 -11.15625 L 6.390625 -4.71875 L 8.859375 -11.15625 L 11.5625 -11.15625 L 12.5625 0 Z M 10.03125 0 "/></g></g></g><g fill="#a47f47" fill-opacity="1"><g transform="translate(218.501152, 198.598492)"><g/></g></g><g fill="#a47f47" fill-opacity="1"><g transform="translate(222.189846, 198.598492)"><g><path d="M 0.8125 -11.15625 L 4.796875 -11.15625 C 5.867188 -11.15625 6.742188 -10.867188 7.421875 -10.296875 C 8.097656 -9.722656 8.4375 -8.90625 8.4375 -7.84375 C 8.4375 -7.019531 8.226562 -6.332031 7.8125 -5.78125 C 7.40625 -5.226562 6.851562 -4.835938 6.15625 -4.609375 L 9.984375 0 L 6.765625 0 L 3.359375 -4.40625 L 3.359375 0 L 0.8125 0 Z M 3.359375 -6.203125 L 3.65625 -6.203125 C 3.882812 -6.203125 4.078125 -6.207031 4.234375 -6.21875 C 4.398438 -6.226562 4.585938 -6.257812 4.796875 -6.3125 C 5.003906 -6.363281 5.171875 -6.4375 5.296875 -6.53125 C 5.421875 -6.632812 5.523438 -6.78125 5.609375 -6.96875 C 5.703125 -7.164062 5.75 -7.394531 5.75 -7.65625 C 5.75 -7.925781 5.703125 -8.15625 5.609375 -8.34375 C 5.523438 -8.539062 5.421875 -8.6875 5.296875 -8.78125 C 5.171875 -8.882812 5.003906 -8.960938 4.796875 -9.015625 C 4.585938 -9.066406 4.398438 -9.097656 4.234375 -9.109375 C 4.078125 -9.117188 3.882812 -9.125 3.65625 -9.125 L 3.359375 -9.125 Z M 3.359375 -6.203125 "/></g></g></g><g fill="#a47f47" fill-opacity="1"><g transform="translate(231.864234, 198.598492)"><g><path d="M 7.1875 -11.15625 L 7.1875 -8.921875 L 3.359375 -8.921875 L 3.359375 -6.703125 L 7.03125 -6.703125 L 7.03125 -4.46875 L 3.359375 -4.46875 L 3.359375 -2.234375 L 7.1875 -2.234375 L 7.1875 0 L 0.8125 0 L 0.8125 -11.15625 Z M 7.1875 -11.15625 "/></g></g></g><g fill="#a47f47" fill-opacity="1"><g transform="translate(239.701033, 198.598492)"><g><path d="M 4.921875 -11.359375 C 5.523438 -11.359375 6.113281 -11.269531 6.6875 -11.09375 C 7.269531 -10.914062 7.695312 -10.738281 7.96875 -10.5625 L 8.375 -10.296875 L 7.359375 -8.265625 C 7.273438 -8.328125 7.160156 -8.398438 7.015625 -8.484375 C 6.867188 -8.566406 6.597656 -8.679688 6.203125 -8.828125 C 5.804688 -8.972656 5.4375 -9.046875 5.09375 -9.046875 C 4.664062 -9.046875 4.335938 -8.953125 4.109375 -8.765625 C 3.878906 -8.585938 3.765625 -8.347656 3.765625 -8.046875 C 3.765625 -7.890625 3.816406 -7.742188 3.921875 -7.609375 C 4.035156 -7.484375 4.222656 -7.34375 4.484375 -7.1875 C 4.742188 -7.039062 4.972656 -6.921875 5.171875 -6.828125 C 5.367188 -6.742188 5.675781 -6.613281 6.09375 -6.4375 C 6.8125 -6.125 7.425781 -5.703125 7.9375 -5.171875 C 8.445312 -4.648438 8.703125 -4.054688 8.703125 -3.390625 C 8.703125 -2.753906 8.585938 -2.195312 8.359375 -1.71875 C 8.128906 -1.238281 7.8125 -0.863281 7.40625 -0.59375 C 7.007812 -0.320312 6.566406 -0.125 6.078125 0 C 5.597656 0.132812 5.070312 0.203125 4.5 0.203125 C 4.007812 0.203125 3.53125 0.148438 3.0625 0.046875 C 2.59375 -0.046875 2.203125 -0.164062 1.890625 -0.3125 C 1.578125 -0.46875 1.289062 -0.613281 1.03125 -0.75 C 0.78125 -0.894531 0.597656 -1.019531 0.484375 -1.125 L 0.3125 -1.265625 L 1.578125 -3.40625 C 1.691406 -3.3125 1.84375 -3.195312 2.03125 -3.0625 C 2.21875 -2.925781 2.550781 -2.738281 3.03125 -2.5 C 3.507812 -2.269531 3.9375 -2.15625 4.3125 -2.15625 C 5.382812 -2.15625 5.921875 -2.519531 5.921875 -3.25 C 5.921875 -3.394531 5.878906 -3.53125 5.796875 -3.65625 C 5.722656 -3.789062 5.585938 -3.921875 5.390625 -4.046875 C 5.203125 -4.179688 5.03125 -4.285156 4.875 -4.359375 C 4.726562 -4.441406 4.488281 -4.5625 4.15625 -4.71875 C 3.820312 -4.875 3.570312 -4.992188 3.40625 -5.078125 C 2.726562 -5.410156 2.203125 -5.828125 1.828125 -6.328125 C 1.460938 -6.828125 1.28125 -7.367188 1.28125 -7.953125 C 1.28125 -8.953125 1.648438 -9.769531 2.390625 -10.40625 C 3.128906 -11.039062 3.972656 -11.359375 4.921875 -11.359375 Z M 4.921875 -11.359375 "/></g></g></g><g fill="#a47f47" fill-opacity="1"><g transform="translate(248.780912, 198.598492)"><g><path d="M 0.109375 -8.921875 L 0.109375 -11.15625 L 7.953125 -11.15625 L 7.953125 -8.921875 L 5.296875 -8.921875 L 5.296875 0 L 2.75 0 L 2.75 -8.921875 Z M 0.109375 -8.921875 "/></g></g></g><g fill="#a47f47" fill-opacity="1"><g transform="translate(256.83389, 198.598492)"><g><path d="M 6.46875 -11.15625 L 10.96875 0 L 8.25 0 L 7.421875 -2.234375 L 3.171875 -2.234375 L 2.359375 0 L -0.375 0 L 4.125 -11.15625 Z M 6.5625 -4.453125 L 5.3125 -7.703125 L 5.28125 -7.703125 L 4.046875 -4.453125 Z M 6.5625 -4.453125 "/></g></g></g><g fill="#a47f47" fill-opacity="1"><g transform="translate(267.427079, 198.598492)"><g><path d="M 9.375 -11.15625 L 9.375 -3.953125 C 9.375 -2.585938 9.003906 -1.550781 8.265625 -0.84375 C 7.523438 -0.144531 6.441406 0.203125 5.015625 0.203125 C 3.597656 0.203125 2.519531 -0.144531 1.78125 -0.84375 C 1.039062 -1.550781 0.671875 -2.585938 0.671875 -3.953125 L 0.671875 -11.15625 L 3.21875 -11.15625 L 3.21875 -4.703125 C 3.21875 -3.804688 3.359375 -3.179688 3.640625 -2.828125 C 3.921875 -2.472656 4.378906 -2.296875 5.015625 -2.296875 C 5.660156 -2.296875 6.125 -2.472656 6.40625 -2.828125 C 6.695312 -3.179688 6.84375 -3.804688 6.84375 -4.703125 L 6.84375 -11.15625 Z M 9.375 -11.15625 "/></g></g></g><g fill="#a47f47" fill-opacity="1"><g transform="translate(277.479797, 198.598492)"><g><path d="M 0.8125 -11.15625 L 4.796875 -11.15625 C 5.867188 -11.15625 6.742188 -10.867188 7.421875 -10.296875 C 8.097656 -9.722656 8.4375 -8.90625 8.4375 -7.84375 C 8.4375 -7.019531 8.226562 -6.332031 7.8125 -5.78125 C 7.40625 -5.226562 6.851562 -4.835938 6.15625 -4.609375 L 9.984375 0 L 6.765625 0 L 3.359375 -4.40625 L 3.359375 0 L 0.8125 0 Z M 3.359375 -6.203125 L 3.65625 -6.203125 C 3.882812 -6.203125 4.078125 -6.207031 4.234375 -6.21875 C 4.398438 -6.226562 4.585938 -6.257812 4.796875 -6.3125 C 5.003906 -6.363281 5.171875 -6.4375 5.296875 -6.53125 C 5.421875 -6.632812 5.523438 -6.78125 5.609375 -6.96875 C 5.703125 -7.164062 5.75 -7.394531 5.75 -7.65625 C 5.75 -7.925781 5.703125 -8.15625 5.609375 -8.34375 C 5.523438 -8.539062 5.421875 -8.6875 5.296875 -8.78125 C 5.171875 -8.882812 5.003906 -8.960938 4.796875 -9.015625 C 4.585938 -9.066406 4.398438 -9.097656 4.234375 -9.109375 C 4.078125 -9.117188 3.882812 -9.125 3.65625 -9.125 L 3.359375 -9.125 Z M 3.359375 -6.203125 "/></g></g></g><g fill="#a47f47" fill-opacity="1"><g transform="translate(287.154186, 198.598492)"><g><path d="M 6.46875 -11.15625 L 10.96875 0 L 8.25 0 L 7.421875 -2.234375 L 3.171875 -2.234375 L 2.359375 0 L -0.375 0 L 4.125 -11.15625 Z M 6.5625 -4.453125 L 5.3125 -7.703125 L 5.28125 -7.703125 L 4.046875 -4.453125 Z M 6.5625 -4.453125 "/></g></g></g><g fill="#a47f47" fill-opacity="1"><g transform="translate(297.747374, 198.598492)"><g><path d="M 3.359375 -6.921875 L 3.359375 0 L 0.8125 0 L 0.8125 -11.15625 L 3.359375 -11.15625 L 7.78125 -4.234375 L 7.8125 -4.234375 L 7.8125 -11.15625 L 10.359375 -11.15625 L 10.359375 0 L 7.8125 0 L 3.375 -6.921875 Z M 3.359375 -6.921875 "/></g></g></g><g fill="#a47f47" fill-opacity="1"><g transform="translate(308.908052, 198.598492)"><g><path d="M 0.109375 -8.921875 L 0.109375 -11.15625 L 7.953125 -11.15625 L 7.953125 -8.921875 L 5.296875 -8.921875 L 5.296875 0 L 2.75 0 L 2.75 -8.921875 Z M 0.109375 -8.921875 "/></g></g></g><g fill="#a47f47" fill-opacity="1"><g transform="translate(316.952401, 198.598492)"><g/></g></g><g fill="#ffffff" fill-opacity="1"><g transform="translate(128.195989, 212.915039)"><g><path d="M 0.09375 -7.421875 L 0.09375 -9.28125 L 6.609375 -9.28125 L 6.609375 -7.421875 L 4.40625 -7.421875 L 4.40625 0 L 2.296875 0 L 2.296875 -7.421875 Z M 0.09375 -7.421875 "/></g></g></g><g fill="#ffffff" fill-opacity="1"><g transform="translate(143.89332, 212.915039)"><g><path d="M 5.390625 -9.28125 L 9.140625 0 L 6.859375 0 L 6.171875 -1.859375 L 2.640625 -1.859375 L 1.953125 0 L -0.3125 0 L 3.4375 -9.28125 Z M 5.453125 -3.71875 L 4.421875 -6.40625 L 4.40625 -6.40625 L 3.359375 -3.71875 Z M 5.453125 -3.71875 "/></g></g></g><g fill="#ffffff" fill-opacity="1"><g transform="translate(161.704358, 212.915039)"><g><path d="M 4.09375 -9.453125 C 4.59375 -9.453125 5.082031 -9.378906 5.5625 -9.234375 C 6.039062 -9.085938 6.398438 -8.941406 6.640625 -8.796875 L 6.96875 -8.578125 L 6.125 -6.890625 C 6.050781 -6.929688 5.953125 -6.988281 5.828125 -7.0625 C 5.710938 -7.132812 5.488281 -7.226562 5.15625 -7.34375 C 4.832031 -7.46875 4.523438 -7.53125 4.234375 -7.53125 C 3.890625 -7.53125 3.617188 -7.453125 3.421875 -7.296875 C 3.234375 -7.148438 3.140625 -6.945312 3.140625 -6.6875 C 3.140625 -6.5625 3.179688 -6.441406 3.265625 -6.328125 C 3.359375 -6.222656 3.515625 -6.109375 3.734375 -5.984375 C 3.953125 -5.867188 4.144531 -5.769531 4.3125 -5.6875 C 4.476562 -5.613281 4.734375 -5.503906 5.078125 -5.359375 C 5.671875 -5.097656 6.179688 -4.75 6.609375 -4.3125 C 7.035156 -3.875 7.25 -3.378906 7.25 -2.828125 C 7.25 -2.296875 7.148438 -1.828125 6.953125 -1.421875 C 6.765625 -1.023438 6.503906 -0.710938 6.171875 -0.484375 C 5.835938 -0.265625 5.46875 -0.101562 5.0625 0 C 4.65625 0.113281 4.21875 0.171875 3.75 0.171875 C 3.34375 0.171875 2.941406 0.128906 2.546875 0.046875 C 2.160156 -0.0351562 1.835938 -0.140625 1.578125 -0.265625 C 1.316406 -0.390625 1.078125 -0.507812 0.859375 -0.625 C 0.648438 -0.75 0.5 -0.851562 0.40625 -0.9375 L 0.265625 -1.0625 L 1.3125 -2.828125 C 1.40625 -2.753906 1.53125 -2.660156 1.6875 -2.546875 C 1.84375 -2.429688 2.117188 -2.273438 2.515625 -2.078125 C 2.921875 -1.878906 3.28125 -1.78125 3.59375 -1.78125 C 4.476562 -1.78125 4.921875 -2.085938 4.921875 -2.703125 C 4.921875 -2.828125 4.890625 -2.941406 4.828125 -3.046875 C 4.765625 -3.160156 4.648438 -3.269531 4.484375 -3.375 C 4.328125 -3.488281 4.1875 -3.578125 4.0625 -3.640625 C 3.9375 -3.703125 3.734375 -3.796875 3.453125 -3.921875 C 3.171875 -4.054688 2.960938 -4.160156 2.828125 -4.234375 C 2.265625 -4.503906 1.828125 -4.847656 1.515625 -5.265625 C 1.210938 -5.679688 1.0625 -6.128906 1.0625 -6.609375 C 1.0625 -7.441406 1.367188 -8.125 1.984375 -8.65625 C 2.597656 -9.1875 3.300781 -9.453125 4.09375 -9.453125 Z M 4.09375 -9.453125 "/></g></g></g><g fill="#ffffff" fill-opacity="1"><g transform="translate(178.256164, 212.915039)"><g><path d="M 0.09375 -7.421875 L 0.09375 -9.28125 L 6.609375 -9.28125 L 6.609375 -7.421875 L 4.40625 -7.421875 L 4.40625 0 L 2.296875 0 L 2.296875 -7.421875 Z M 0.09375 -7.421875 "/></g></g></g><g fill="#ffffff" fill-opacity="1"><g transform="translate(193.953496, 212.915039)"><g><path d="M -0.34375 -9.28125 L 2.203125 -9.28125 L 4.140625 -6.3125 L 6.078125 -9.28125 L 8.625 -9.28125 L 5.203125 -4.15625 L 5.203125 0 L 3.078125 0 L 3.078125 -4.15625 Z M -0.34375 -9.28125 "/></g></g></g><g fill="#ffffff" fill-opacity="1"><g transform="translate(211.224863, 212.915039)"><g/></g></g><g fill="#ffffff" fill-opacity="1"><g transform="translate(223.290657, 212.915039)"><g><path d="M 5.609375 -1.90625 C 5.929688 -1.90625 6.242188 -1.953125 6.546875 -2.046875 C 6.859375 -2.148438 7.082031 -2.25 7.21875 -2.34375 L 7.4375 -2.484375 L 8.34375 -0.6875 C 8.3125 -0.664062 8.269531 -0.632812 8.21875 -0.59375 C 8.164062 -0.5625 8.039062 -0.492188 7.84375 -0.390625 C 7.65625 -0.285156 7.453125 -0.195312 7.234375 -0.125 C 7.015625 -0.0507812 6.726562 0.015625 6.375 0.078125 C 6.019531 0.140625 5.65625 0.171875 5.28125 0.171875 C 4.425781 0.171875 3.609375 -0.0390625 2.828125 -0.46875 C 2.054688 -0.894531 1.4375 -1.476562 0.96875 -2.21875 C 0.5 -2.957031 0.265625 -3.757812 0.265625 -4.625 C 0.265625 -5.28125 0.398438 -5.90625 0.671875 -6.5 C 0.953125 -7.101562 1.320312 -7.617188 1.78125 -8.046875 C 2.238281 -8.472656 2.773438 -8.8125 3.390625 -9.0625 C 4.003906 -9.320312 4.632812 -9.453125 5.28125 -9.453125 C 5.882812 -9.453125 6.4375 -9.378906 6.9375 -9.234375 C 7.445312 -9.085938 7.804688 -8.945312 8.015625 -8.8125 L 8.34375 -8.59375 L 7.4375 -6.796875 C 7.382812 -6.835938 7.304688 -6.890625 7.203125 -6.953125 C 7.097656 -7.015625 6.882812 -7.097656 6.5625 -7.203125 C 6.25 -7.316406 5.929688 -7.375 5.609375 -7.375 C 5.097656 -7.375 4.640625 -7.289062 4.234375 -7.125 C 3.835938 -6.957031 3.519531 -6.738281 3.28125 -6.46875 C 3.039062 -6.195312 2.859375 -5.90625 2.734375 -5.59375 C 2.609375 -5.28125 2.546875 -4.960938 2.546875 -4.640625 C 2.546875 -3.941406 2.8125 -3.3125 3.34375 -2.75 C 3.875 -2.1875 4.628906 -1.90625 5.609375 -1.90625 Z M 5.609375 -1.90625 "/></g></g></g><g fill="#ffffff" fill-opacity="1"><g transform="translate(240.753154, 212.915039)"><g><path d="M 0.265625 -4.640625 C 0.265625 -5.984375 0.71875 -7.117188 1.625 -8.046875 C 2.539062 -8.984375 3.644531 -9.453125 4.9375 -9.453125 C 6.238281 -9.453125 7.34375 -8.988281 8.25 -8.0625 C 9.15625 -7.132812 9.609375 -5.992188 9.609375 -4.640625 C 9.609375 -3.285156 9.160156 -2.144531 8.265625 -1.21875 C 7.378906 -0.289062 6.269531 0.171875 4.9375 0.171875 C 3.582031 0.171875 2.460938 -0.285156 1.578125 -1.203125 C 0.703125 -2.128906 0.265625 -3.273438 0.265625 -4.640625 Z M 2.546875 -4.640625 C 2.546875 -4.160156 2.617188 -3.71875 2.765625 -3.3125 C 2.921875 -2.914062 3.1875 -2.578125 3.5625 -2.296875 C 3.9375 -2.015625 4.394531 -1.875 4.9375 -1.875 C 5.726562 -1.875 6.320312 -2.144531 6.71875 -2.6875 C 7.125 -3.226562 7.328125 -3.878906 7.328125 -4.640625 C 7.328125 -5.398438 7.117188 -6.050781 6.703125 -6.59375 C 6.296875 -7.132812 5.707031 -7.40625 4.9375 -7.40625 C 4.175781 -7.40625 3.585938 -7.132812 3.171875 -6.59375 C 2.753906 -6.050781 2.546875 -5.398438 2.546875 -4.640625 Z M 2.546875 -4.640625 "/></g></g></g><g fill="#ffffff" fill-opacity="1"><g transform="translate(259.609801, 212.915039)"><g><path d="M 0.671875 -9.28125 L 4 -9.28125 C 4.882812 -9.28125 5.609375 -9.039062 6.171875 -8.5625 C 6.734375 -8.09375 7.015625 -7.414062 7.015625 -6.53125 C 7.015625 -5.84375 6.84375 -5.269531 6.5 -4.8125 C 6.164062 -4.351562 5.707031 -4.03125 5.125 -3.84375 L 8.3125 0 L 5.625 0 L 2.796875 -3.671875 L 2.796875 0 L 0.671875 0 Z M 2.796875 -5.15625 L 3.03125 -5.15625 C 3.226562 -5.15625 3.394531 -5.160156 3.53125 -5.171875 C 3.664062 -5.179688 3.816406 -5.207031 3.984375 -5.25 C 4.160156 -5.300781 4.300781 -5.363281 4.40625 -5.4375 C 4.507812 -5.519531 4.597656 -5.640625 4.671875 -5.796875 C 4.753906 -5.960938 4.796875 -6.15625 4.796875 -6.375 C 4.796875 -6.601562 4.753906 -6.796875 4.671875 -6.953125 C 4.597656 -7.109375 4.507812 -7.226562 4.40625 -7.3125 C 4.300781 -7.394531 4.160156 -7.457031 3.984375 -7.5 C 3.816406 -7.550781 3.664062 -7.578125 3.53125 -7.578125 C 3.394531 -7.585938 3.226562 -7.59375 3.03125 -7.59375 L 2.796875 -7.59375 Z M 2.796875 -5.15625 "/></g></g></g><g fill="#ffffff" fill-opacity="1"><g transform="translate(276.656306, 212.915039)"><g><path d="M 2.796875 -5.765625 L 2.796875 0 L 0.671875 0 L 0.671875 -9.28125 L 2.796875 -9.28125 L 6.484375 -3.515625 L 6.5 -3.515625 L 6.5 -9.28125 L 8.625 -9.28125 L 8.625 0 L 6.5 0 L 2.8125 -5.765625 Z M 2.796875 -5.765625 "/></g></g></g><g fill="#ffffff" fill-opacity="1"><g transform="translate(294.939546, 212.915039)"><g><path d="M 5.984375 -9.28125 L 5.984375 -7.421875 L 2.796875 -7.421875 L 2.796875 -5.578125 L 5.84375 -5.578125 L 5.84375 -3.71875 L 2.796875 -3.71875 L 2.796875 -1.859375 L 5.984375 -1.859375 L 5.984375 0 L 0.671875 0 L 0.671875 -9.28125 Z M 5.984375 -9.28125 "/></g></g></g><g fill="#ffffff" fill-opacity="1"><g transform="translate(310.456978, 212.915039)"><g><path d="M 0.671875 -9.28125 L 4 -9.28125 C 4.882812 -9.28125 5.609375 -9.039062 6.171875 -8.5625 C 6.734375 -8.09375 7.015625 -7.414062 7.015625 -6.53125 C 7.015625 -5.84375 6.84375 -5.269531 6.5 -4.8125 C 6.164062 -4.351562 5.707031 -4.03125 5.125 -3.84375 L 8.3125 0 L 5.625 0 L 2.796875 -3.671875 L 2.796875 0 L 0.671875 0 Z M 2.796875 -5.15625 L 3.03125 -5.15625 C 3.226562 -5.15625 3.394531 -5.160156 3.53125 -5.171875 C 3.664062 -5.179688 3.816406 -5.207031 3.984375 -5.25 C 4.160156 -5.300781 4.300781 -5.363281 4.40625 -5.4375 C 4.507812 -5.519531 4.597656 -5.640625 4.671875 -5.796875 C 4.753906 -5.960938 4.796875 -6.15625 4.796875 -6.375 C 4.796875 -6.601562 4.753906 -6.796875 4.671875 -6.953125 C 4.597656 -7.109375 4.507812 -7.226562 4.40625 -7.3125 C 4.300781 -7.394531 4.160156 -7.457031 3.984375 -7.5 C 3.816406 -7.550781 3.664062 -7.578125 3.53125 -7.578125 C 3.394531 -7.585938 3.226562 -7.59375 3.03125 -7.59375 L 2.796875 -7.59375 Z M 2.796875 -5.15625 "/></g></g></g><g clip-path="url(#6955f32143)"><path fill="#ffffff" d="M 72.480469 179.253906 C 71.945312 179.253906 71.433594 179.484375 71.082031 179.886719 L 71.070312 179.894531 C 70.867188 180.136719 70.730469 180.410156 70.664062 180.699219 C 70.300781 180.78125 69.96875 180.972656 69.714844 181.25 C 69.457031 181.527344 69.304688 181.859375 69.246094 182.207031 C 68.875 182.265625 68.53125 182.4375 68.253906 182.707031 C 67.992188 182.960938 67.820312 183.273438 67.738281 183.605469 C 67.449219 183.675781 67.175781 183.816406 66.949219 184.015625 C 66.199219 184.675781 66.105469 185.828125 66.746094 186.597656 L 75.617188 197.296875 L 75.632812 197.320312 C 76.824219 198.695312 78.449219 199.488281 80.214844 199.550781 C 80.292969 199.554688 80.367188 199.554688 80.441406 199.554688 C 81.367188 199.554688 82.265625 199.351562 83.09375 198.957031 C 84.09375 199.988281 85.175781 201.125 86.433594 202.46875 C 86.652344 202.699219 86.871094 202.9375 87.089844 203.171875 C 86.542969 203.667969 86.007812 204.15625 85.488281 204.625 C 83.441406 206.46875 81.382812 208.28125 79.375 210.011719 C 76.96875 212.082031 74.976562 213.730469 73.109375 215.203125 L 73.101562 215.210938 C 72.855469 215.410156 72.625 215.640625 72.4375 215.878906 C 71.046875 217.640625 71.351562 220.203125 73.109375 221.59375 C 73.824219 222.15625 74.722656 222.46875 75.628906 222.46875 C 76.882812 222.46875 78.050781 221.902344 78.824219 220.917969 C 80.296875 219.050781 81.898438 217.117188 84.019531 214.652344 C 85.757812 212.636719 87.570312 210.578125 89.40625 208.542969 C 89.828125 208.074219 90.257812 207.601562 90.707031 207.105469 C 91.140625 207.582031 91.550781 208.035156 91.941406 208.46875 C 93.785156 210.511719 95.597656 212.570312 97.328125 214.578125 C 99.445312 217.042969 101.046875 218.976562 102.519531 220.84375 C 102.71875 221.09375 102.953125 221.328125 103.195312 221.519531 C 103.910156 222.082031 104.800781 222.394531 105.710938 222.394531 C 106.96875 222.394531 108.132812 221.828125 108.90625 220.84375 C 110.296875 219.082031 109.996094 216.519531 108.234375 215.128906 C 106.371094 213.660156 104.378906 212.007812 101.96875 209.9375 C 99.953125 208.203125 97.898438 206.390625 95.859375 204.550781 C 95.367188 204.109375 94.863281 203.652344 94.332031 203.167969 C 94.523438 202.957031 94.714844 202.75 94.910156 202.542969 C 96.273438 201.089844 97.433594 199.875 98.496094 198.777344 C 99.238281 199.011719 100.078125 199.136719 100.984375 199.136719 C 104.179688 199.136719 107.515625 197.710938 109.902344 195.320312 C 111.855469 193.367188 113.164062 190.820312 113.59375 188.144531 C 114.011719 185.519531 113.480469 183.171875 112.167969 181.859375 C 111.183594 180.875 109.574219 180.332031 107.640625 180.332031 C 104.425781 180.332031 101.085938 181.75 98.710938 184.128906 C 96.988281 185.847656 95.761719 188.167969 95.253906 190.65625 C 94.898438 192.394531 94.925781 194.117188 95.300781 195.484375 C 94.195312 196.558594 92.988281 197.710938 91.484375 199.117188 C 91.230469 199.359375 90.972656 199.601562 90.710938 199.839844 C 90.425781 199.574219 90.140625 199.308594 89.863281 199.042969 C 88.46875 197.738281 87.335938 196.660156 86.300781 195.660156 C 86.671875 194.804688 86.84375 193.890625 86.804688 192.953125 C 86.734375 191.1875 85.929688 189.566406 84.539062 188.378906 L 84.503906 188.351562 L 73.640625 179.660156 C 73.308594 179.398438 72.898438 179.253906 72.480469 179.253906 Z M 72.480469 180.746094 C 72.558594 180.746094 72.640625 180.769531 72.707031 180.824219 L 83.570312 189.515625 C 84.644531 190.429688 85.261719 191.671875 85.316406 193.015625 C 85.355469 194.0625 85.046875 195.070312 84.441406 195.929688 C 85.890625 197.351562 87.359375 198.746094 88.839844 200.132812 C 89.460938 200.714844 90.085938 201.292969 90.710938 201.871094 C 91.3125 201.316406 91.914062 200.765625 92.507812 200.207031 C 94.03125 198.777344 95.546875 197.339844 97.039062 195.871094 C 95.910156 193.644531 96.398438 188.546875 99.765625 185.179688 C 102.097656 182.851562 105.1875 181.824219 107.640625 181.824219 C 109.140625 181.824219 110.40625 182.207031 111.113281 182.914062 C 113.054688 184.855469 112.609375 190.503906 108.847656 194.265625 C 106.515625 196.601562 103.4375 197.644531 100.984375 197.644531 C 99.859375 197.644531 98.867188 197.425781 98.136719 197.011719 C 96.679688 198.496094 95.246094 200.003906 93.824219 201.523438 C 93.285156 202.097656 92.75 202.675781 92.214844 203.253906 C 93.09375 204.058594 93.972656 204.859375 94.859375 205.660156 C 96.882812 207.484375 98.929688 209.289062 100.996094 211.066406 C 103.066406 212.847656 105.15625 214.601562 107.308594 216.300781 C 108.425781 217.183594 108.617188 218.800781 107.738281 219.917969 C 107.226562 220.5625 106.472656 220.902344 105.710938 220.902344 C 105.152344 220.902344 104.589844 220.71875 104.117188 220.347656 C 103.960938 220.222656 103.8125 220.070312 103.691406 219.917969 C 101.992188 217.765625 100.238281 215.675781 98.457031 213.605469 C 96.675781 211.539062 94.875 209.492188 93.046875 207.46875 C 92.269531 206.605469 91.488281 205.746094 90.707031 204.890625 C 89.898438 205.773438 89.097656 206.65625 88.296875 207.542969 C 86.472656 209.566406 84.667969 211.613281 82.886719 213.679688 C 81.109375 215.75 79.351562 217.839844 77.652344 219.992188 C 77.144531 220.640625 76.390625 220.976562 75.628906 220.976562 C 75.070312 220.976562 74.507812 220.792969 74.035156 220.421875 C 72.917969 219.542969 72.726562 217.917969 73.609375 216.800781 C 73.734375 216.644531 73.882812 216.496094 74.035156 216.375 C 76.1875 214.679688 78.28125 212.921875 80.347656 211.140625 C 82.417969 209.363281 84.460938 207.558594 86.484375 205.734375 C 87.394531 204.914062 88.300781 204.089844 89.203125 203.261719 C 88.644531 202.65625 88.085938 202.046875 87.523438 201.449219 C 86.140625 199.976562 84.75 198.511719 83.339844 197.070312 C 82.492188 197.714844 81.492188 198.0625 80.441406 198.0625 C 80.382812 198.0625 80.328125 198.0625 80.269531 198.058594 C 78.921875 198.011719 77.679688 197.402344 76.761719 196.34375 L 67.894531 185.648438 C 67.769531 185.496094 67.78125 185.269531 67.933594 185.140625 C 68.003906 185.078125 68.089844 185.046875 68.175781 185.046875 C 68.273438 185.046875 68.367188 185.082031 68.441406 185.160156 L 77.570312 194.597656 C 77.648438 194.679688 77.734375 194.722656 77.816406 194.726562 L 77.828125 194.726562 C 77.871094 194.726562 77.9375 194.710938 77.992188 194.65625 C 78.105469 194.542969 78.09375 194.324219 77.960938 194.179688 L 69.277344 184.28125 C 69.144531 184.136719 69.148438 183.914062 69.292969 183.777344 C 69.363281 183.707031 69.457031 183.671875 69.550781 183.671875 C 69.640625 183.671875 69.726562 183.707031 69.796875 183.769531 L 79.484375 192.652344 C 79.570312 192.738281 79.664062 192.777344 79.757812 192.777344 C 79.808594 192.777344 79.882812 192.765625 79.945312 192.703125 C 80.003906 192.644531 80.015625 192.570312 80.015625 192.519531 C 80.015625 192.425781 79.972656 192.335938 79.902344 192.265625 L 70.8125 182.765625 C 70.679688 182.625 70.679688 182.402344 70.8125 182.261719 C 70.882812 182.183594 70.980469 182.144531 71.078125 182.144531 C 71.160156 182.144531 71.246094 182.171875 71.316406 182.230469 L 81.402344 190.710938 C 81.488281 190.789062 81.59375 190.832031 81.691406 190.832031 C 81.769531 190.832031 81.84375 190.804688 81.898438 190.753906 C 81.953125 190.695312 81.964844 190.628906 81.964844 190.582031 C 81.960938 190.5 81.917969 190.414062 81.84375 190.347656 L 72.230469 181.378906 C 72.085938 181.246094 72.074219 181.019531 72.199219 180.871094 C 72.273438 180.789062 72.375 180.746094 72.480469 180.746094 " fill-opacity="1" fill-rule="nonzero"/></g></svg>